SplineFontDB: 3.0
FontName: Purisa
FullName: Purisa
FamilyName: Purisa
Weight: Light
Copyright: Purisa, Thai handwriting outline font.\n\nCopyright (C) 2003, 2004 Poonlap Veerathanabutr <poonlap@linux.thai.net>
Version: 002.007: 2007-12-07
ItalicAngle: 0
UnderlinePosition: -150
UnderlineWidth: 50
Ascent: 800
Descent: 200
LayerCount: 2
Layer: 0 1 "Back" 
Layer: 1 1 "Fore" 
NeedsXUIDChange: 1
XUID: [1021 792 1708841277 12055888]
FSType: 12
OS2Version: 1
OS2_WeightWidthSlopeOnly: 0
OS2_UseTypoMetrics: 1
CreationTime: 1153666222
ModificationTime: 1248092477
PfmFamily: 17
TTFWeight: 300
TTFWidth: 5
LineGap: 113
VLineGap: 0
Panose: 2 0 6 3 0 0 0 0 0 0
OS2TypoAscent: 0
OS2TypoAOffset: 1
OS2TypoDescent: 0
OS2TypoDOffset: 1
OS2TypoLinegap: 0
OS2WinAscent: 0
OS2WinAOffset: 1
OS2WinDescent: 0
OS2WinDOffset: 1
HheadAscent: 0
HheadAOffset: 1
HheadDescent: 0
HheadDOffset: 1
OS2SubXSize: 650
OS2SubYSize: 699
OS2SubXOff: 0
OS2SubYOff: 140
OS2SupXSize: 650
OS2SupYSize: 699
OS2SupXOff: 0
OS2SupYOff: 479
OS2StrikeYSize: 49
OS2StrikeYPos: 258
OS2Vendor: 'PfEd'
OS2CodePages: 80010000.00000000
OS2UnicodeRanges: 81000003.10000000.00000000.00000000
Lookup: 6 0 0 "'ccmp' Glyph Composition/Decomposition in Thai lookup 0"  {"'ccmp' Glyph Composition/Decomposition in Thai lookup 0 subtable"  } ['ccmp' ('thai' <'KUY ' 'PAL ' 'THA ' 'dflt' > ) ]
Lookup: 6 0 0 "'ccmp' Glyph Composition/Decomposition in Thai lookup 1"  {"'ccmp' Glyph Composition/Decomposition in Thai lookup 1 subtable"  } ['ccmp' ('thai' <'KUY ' 'PAL ' 'THA ' 'dflt' > ) ]
Lookup: 4 8 1 "'liga' Standard Ligatures lookup 2"  {"'liga' Standard Ligatures lookup 2 subtable"  } ['liga' ('DFLT' <'dflt' > ) ]
Lookup: 5 0 0 "Required Feature in Thai lookup 3"  {"Required Feature in Thai lookup 3 subtable"  } [' RQD' ('thai' <'PAL ' > ) ]
Lookup: 1 0 0 "Single Substitution lookup 4"  {"Single Substitution lookup 4 subtable"  } []
Lookup: 2 0 0 "Multiple Substitution lookup 5"  {"Multiple Substitution lookup 5 subtable"  } []

StartChar: exclam
Encoding: 33 33 1
Width: 519
GlyphClass: 2
Flags: W
LayerCount: 2
Fore
SplineSet
274 2 m 0,0,1
 266 2 266 2 249.5 9.5 c 128,-1,2
 233 17 233 17 229 17 c 0,3,4
 220 17 220 17 210.5 28 c 128,-1,5
 201 39 201 39 201 50 c 0,6,7
 201 64 201 64 216.5 89 c 128,-1,8
 232 114 232 114 244 119 c 0,9,10
 252 123 252 123 267 123 c 0,11,12
 319 123 319 123 319 83 c 0,13,14
 319 60 319 60 306.5 31 c 128,-1,15
 294 2 294 2 274 2 c 0,0,1
212 534 m 0,16,17
 212 546 212 546 216 549 c 128,-1,18
 220 552 220 552 232 552 c 0,19,20
 239 552 239 552 266 548.5 c 128,-1,21
 293 545 293 545 309 544 c 2,22,-1
 344 540 l 1,23,-1
 341 503 l 2,24,25
 339 477 339 477 315 396.5 c 128,-1,26
 291 316 291 316 279 251 c 0,27,28
 274 224 274 224 262 224 c 0,29,30
 254 224 254 224 249.5 230.5 c 128,-1,31
 245 237 245 237 242 255.5 c 128,-1,32
 239 274 239 274 237.5 293.5 c 128,-1,33
 236 313 236 313 232.5 353 c 128,-1,34
 229 393 229 393 225 429 c 0,35,36
 222 446 222 446 222 468 c 0,37,38
 222 472 222 472 223 485.5 c 128,-1,39
 224 499 224 499 223.5 506 c 128,-1,40
 223 513 223 513 219 516 c 0,41,42
 212 520 212 520 212 534 c 0,16,17
EndSplineSet
EndChar

StartChar: quotedbl
Encoding: 34 34 2
Width: 572
GlyphClass: 2
Flags: W
LayerCount: 2
Fore
SplineSet
194 695 m 0,0,1
 205 709 205 709 218 709 c 0,2,3
 238 709 238 709 248.5 683 c 128,-1,4
 259 657 259 657 274 594 c 0,5,6
 285 557 285 557 285 525 c 0,7,8
 285 470 285 470 254 470 c 0,9,10
 243 470 243 470 229 478 c 0,11,12
 214 487 214 487 200 545.5 c 128,-1,13
 186 604 186 604 186 652 c 0,14,15
 186 684 186 684 194 695 c 0,0,1
308 677 m 0,16,17
 308 735 308 735 328 735 c 0,18,19
 339 735 339 735 357 708 c 0,20,21
 380 667 380 667 380 522 c 0,22,23
 380 493 380 493 376 481.5 c 128,-1,24
 372 470 372 470 360 470 c 0,25,26
 341 470 341 470 330 492 c 0,27,28
 322 509 322 509 315 570 c 128,-1,29
 308 631 308 631 308 677 c 0,16,17
EndSplineSet
EndChar

StartChar: numbersign
Encoding: 35 35 3
Width: 655
GlyphClass: 2
Flags: W
LayerCount: 2
Fore
SplineSet
338 466 m 0,0,1
 371 466 371 466 391 478 c 128,-1,2
 411 490 411 490 418.5 507 c 128,-1,3
 426 524 426 524 429.5 541 c 128,-1,4
 433 558 433 558 439.5 570 c 128,-1,5
 446 582 446 582 458 582 c 0,6,7
 482 582 482 582 482 552 c 0,8,9
 482 545 482 545 481 534.5 c 128,-1,10
 480 524 480 524 480 517 c 0,11,12
 480 500 480 500 485.5 497 c 128,-1,13
 491 494 491 494 510 494 c 0,14,15
 537 494 537 494 537 473 c 0,16,17
 537 457 537 457 521 439.5 c 128,-1,18
 505 422 505 422 491 422 c 0,19,20
 488 422 488 422 485 423 c 128,-1,21
 482 424 482 424 480 424 c 0,22,23
 471 424 471 424 466.5 406 c 128,-1,24
 462 388 462 388 449 305 c 2,25,-1
 441 261 l 1,26,-1
 506 267 l 2,27,28
 538 270 538 270 551 270 c 0,29,30
 569 270 569 270 569 260 c 0,31,32
 569 235 569 235 555.5 225.5 c 128,-1,33
 542 216 542 216 504 207 c 0,34,35
 442 190 442 190 429.5 179.5 c 128,-1,36
 417 169 417 169 416 131 c 0,37,38
 415 76 415 76 406 55 c 128,-1,39
 397 34 397 34 373 31 c 2,40,-1
 344 28 l 1,41,-1
 351 97 l 1,42,-1
 359 165 l 1,43,-1
 324 165 l 2,44,45
 286 165 286 165 274.5 151.5 c 128,-1,46
 263 138 263 138 253 82 c 0,47,48
 238 -9 238 -9 214 -9 c 0,49,50
 210 -9 210 -9 204.5 -7 c 128,-1,51
 199 -5 199 -5 193 6.5 c 128,-1,52
 187 18 187 18 187 36 c 0,53,54
 187 51 187 51 190 78 c 2,55,-1
 197 145 l 1,56,-1
 140 145 l 2,57,58
 100 145 100 145 87.5 149.5 c 128,-1,59
 75 154 75 154 75 163 c 0,60,61
 75 177 75 177 98 189.5 c 128,-1,62
 121 202 121 202 154 205 c 0,63,64
 196 209 196 209 208 222.5 c 128,-1,65
 220 236 220 236 229 286 c 0,66,67
 234 326 234 326 242 353 c 2,68,-1
 248 378 l 1,69,-1
 175 370 l 2,70,71
 127 366 127 366 125 366 c 0,72,73
 110 366 110 366 106 370.5 c 128,-1,74
 102 375 102 375 102 388 c 0,75,76
 102 403 102 403 111 410 c 128,-1,77
 120 417 120 417 148 425 c 0,78,79
 193 437 193 437 218 437 c 0,80,81
 242 437 242 437 250 451 c 128,-1,82
 258 465 258 465 264 515 c 0,83,84
 268 550 268 550 274.5 561 c 128,-1,85
 281 572 281 572 300 572 c 0,86,87
 310 572 310 572 313 562.5 c 128,-1,88
 316 553 316 553 318 519 c 0,89,90
 319 494 319 494 320.5 485 c 128,-1,91
 322 476 322 476 325.5 471 c 128,-1,92
 329 466 329 466 338 466 c 0,0,1
358 235 m 0,93,94
 375 239 375 239 386 301.5 c 128,-1,95
 397 364 397 364 397 383 c 0,96,97
 397 407 397 407 379 407 c 0,98,99
 370 407 370 407 350 402 c 0,100,101
 316 395 316 395 308.5 379 c 128,-1,102
 301 363 301 363 289 272 c 2,103,-1
 282 217 l 1,104,-1
 312 223 l 2,105,106
 352 233 352 233 358 235 c 0,93,94
EndSplineSet
EndChar

StartChar: dollar
Encoding: 36 36 4
Width: 628
GlyphClass: 2
Flags: W
LayerCount: 2
Fore
SplineSet
459 474 m 0,0,1
 444 474 444 474 407.5 500.5 c 128,-1,2
 371 527 371 527 366 527 c 0,3,4
 362 527 362 527 355 458 c 2,5,-1
 349 391 l 1,6,-1
 381 375 l 2,7,8
 466 332 466 332 466 247 c 0,9,10
 466 198 466 198 433 142.5 c 128,-1,11
 400 87 400 87 349 72 c 0,12,13
 311 62 311 62 299.5 40.5 c 128,-1,14
 288 19 288 19 279 -57 c 0,15,16
 270 -137 270 -137 266 -141 c 1,17,18
 254 -147 254 -147 229 -147 c 0,19,20
 220 -147 220 -147 217 -142.5 c 128,-1,21
 214 -138 214 -138 214 -125 c 0,22,23
 214 -70 214 -70 229 11 c 2,24,-1
 241 82 l 1,25,-1
 205 113 l 2,26,27
 172 141 172 141 149 184 c 128,-1,28
 126 227 126 227 126 255 c 0,29,30
 126 281 126 281 146 281 c 0,31,32
 158 281 158 281 168.5 266.5 c 128,-1,33
 179 252 179 252 195.5 222.5 c 128,-1,34
 212 193 212 193 227 173 c 2,35,-1
 246 149 l 1,36,-1
 253 188 l 2,37,38
 257 208 257 208 267.5 251.5 c 128,-1,39
 278 295 278 295 278 312 c 0,40,41
 278 338 278 338 254 344 c 0,42,43
 223 353 223 353 197 378.5 c 128,-1,44
 171 404 171 404 171 430 c 0,45,46
 171 464 171 464 203.5 512 c 128,-1,47
 236 560 236 560 270 576 c 0,48,49
 296 588 296 588 303.5 600 c 128,-1,50
 311 612 311 612 319 657 c 0,51,52
 329 719 329 719 336 739 c 0,53,54
 341 756 341 756 367 756 c 0,55,56
 381 756 381 756 385.5 754 c 128,-1,57
 390 752 390 752 390 743 c 0,58,59
 390 736 390 736 381 681 c 128,-1,60
 372 626 372 626 372 599 c 0,61,62
 372 578 372 578 378 578 c 0,63,64
 388 578 388 578 430 538 c 128,-1,65
 472 498 472 498 472 488 c 0,66,67
 472 474 472 474 459 474 c 0,0,1
281 380 m 0,68,69
 286 380 286 380 292 419 c 128,-1,70
 298 458 298 458 298 493 c 0,71,72
 298 524 298 524 294 544 c 1,73,-1
 261 500 l 2,74,75
 228 456 228 456 228 439 c 0,76,77
 228 426 228 426 249 403 c 128,-1,78
 270 380 270 380 281 380 c 0,68,69
410 246 m 0,79,80
 410 274 410 274 395 295 c 128,-1,81
 380 316 380 316 366 324 c 2,82,-1
 351 331 l 1,83,84
 340 331 340 331 325 251.5 c 128,-1,85
 310 172 310 172 310 123 c 0,86,87
 310 95 310 95 319 95 c 0,88,89
 335 95 335 95 372.5 146 c 128,-1,90
 410 197 410 197 410 246 c 0,79,80
EndSplineSet
EndChar

StartChar: percent
Encoding: 37 37 5
Width: 734
GlyphClass: 2
Flags: W
LayerCount: 2
Fore
SplineSet
440 78 m 0,0,1
 440 101 440 101 472 148 c 128,-1,2
 504 195 504 195 530 195 c 0,3,4
 547 195 547 195 563 174.5 c 128,-1,5
 579 154 579 154 579 140 c 0,6,7
 579 119 579 119 551 80.5 c 128,-1,8
 523 42 523 42 486 42 c 0,9,10
 468 42 468 42 454 54.5 c 128,-1,11
 440 67 440 67 440 78 c 0,0,1
154 408 m 0,12,13
 154 442 154 442 169 464 c 128,-1,14
 184 486 184 486 200 486 c 0,15,16
 214 486 214 486 234.5 468 c 128,-1,17
 255 450 255 450 255 419 c 0,18,19
 255 389 255 389 237.5 365.5 c 128,-1,20
 220 342 220 342 194 342 c 0,21,22
 176 342 176 342 165 361.5 c 128,-1,23
 154 381 154 381 154 408 c 0,12,13
100 -47 m 0,24,25
 97 -47 97 -47 92 -45.5 c 128,-1,26
 87 -44 87 -44 81.5 -38.5 c 128,-1,27
 76 -33 76 -33 76 -25 c 0,28,29
 76 1 76 1 160 85 c 0,30,31
 229 153 229 153 313.5 249.5 c 128,-1,32
 398 346 398 346 449 415 c 0,33,34
 485 464 485 464 541.5 514 c 128,-1,35
 598 564 598 564 618 564 c 0,36,37
 632 564 632 564 632 538 c 0,38,39
 632 514 632 514 589 462 c 128,-1,40
 546 410 546 410 475.5 333.5 c 128,-1,41
 405 257 405 257 368 208 c 0,42,43
 331 157 331 157 223 52 c 0,44,45
 124 -47 124 -47 100 -47 c 0,24,25
EndSplineSet
EndChar

StartChar: ampersand
Encoding: 38 38 6
Width: 734
GlyphClass: 2
Flags: W
LayerCount: 2
Fore
SplineSet
208 -45 m 0,0,1
 180 -45 180 -45 148 -18.5 c 128,-1,2
 116 8 116 8 116 65 c 0,3,4
 116 126 116 126 158 211 c 2,5,-1
 202 302 l 1,6,-1
 184 357 l 2,7,8
 157 435 157 435 157 479 c 0,9,10
 157 514 157 514 174 538.5 c 128,-1,11
 191 563 191 563 229 586 c 0,12,13
 275 613 275 613 296 613 c 1,14,-1
 308 610 l 2,15,16
 320 608 320 608 329 608 c 0,17,18
 340 608 340 608 352.5 578.5 c 128,-1,19
 365 549 365 549 365 527 c 0,20,21
 365 498 365 498 325 412 c 128,-1,22
 285 326 285 326 285 311 c 0,23,24
 285 291 285 291 335 245 c 128,-1,25
 385 199 385 199 408 199 c 0,26,27
 424 199 424 199 444 223 c 128,-1,28
 464 247 464 247 480.5 275.5 c 128,-1,29
 497 304 497 304 518.5 328 c 128,-1,30
 540 352 540 352 559 352 c 0,31,32
 570 352 570 352 581 342 c 128,-1,33
 592 332 592 332 592 323 c 0,34,35
 592 308 592 308 537.5 238 c 128,-1,36
 483 168 483 168 483 154 c 0,37,38
 483 148 483 148 492 148 c 128,-1,39
 501 148 501 148 522 132 c 128,-1,40
 543 116 543 116 562 116 c 0,41,42
 590 116 590 116 620.5 97 c 128,-1,43
 651 78 651 78 651 61 c 0,44,45
 651 34 651 34 616 34 c 0,46,47
 560 34 560 34 484 90 c 2,48,-1
 446 117 l 1,49,-1
 389 67 l 2,50,51
 354 36 354 36 293 -4.5 c 128,-1,52
 232 -45 232 -45 208 -45 c 0,0,1
233 460 m 0,53,54
 233 395 233 395 245 395 c 0,55,56
 256 395 256 395 276 417 c 0,57,58
 301 445 301 445 301 498 c 128,-1,59
 301 551 301 551 289 551 c 0,60,61
 281 551 281 551 259 535 c 0,62,63
 243 525 243 525 238 510.5 c 128,-1,64
 233 496 233 496 233 460 c 0,53,54
177 71 m 0,65,66
 177 51 177 51 184 38 c 128,-1,67
 191 25 191 25 203 25 c 0,68,69
 218 25 218 25 282.5 64 c 128,-1,70
 347 103 347 103 364 106 c 0,71,72
 386 110 386 110 386 121 c 128,-1,73
 386 132 386 132 365 147 c 128,-1,74
 344 162 344 162 312.5 183 c 128,-1,75
 281 204 281 204 266 222 c 2,76,-1
 245 248 l 1,77,-1
 211 182 l 2,78,79
 177 117 177 117 177 71 c 0,65,66
EndSplineSet
EndChar

StartChar: quotesingle
Encoding: 39 39 7
Width: 613
GlyphClass: 2
Flags: W
LayerCount: 2
Fore
SplineSet
250 684 m 0,0,1
 259 701 259 701 282 701 c 0,2,3
 302 701 302 701 348 695 c 128,-1,4
 394 689 394 689 401 685 c 0,5,6
 406 682 406 682 406 669 c 0,7,8
 406 654 406 654 398.5 632 c 128,-1,9
 391 610 391 610 382 599 c 0,10,11
 367 582 367 582 358 519 c 0,12,13
 352 477 352 477 345.5 465 c 128,-1,14
 339 453 339 453 323 453 c 0,15,16
 297 453 297 453 276.5 482 c 128,-1,17
 256 511 256 511 255 551 c 0,18,19
 253 589 253 589 245.5 603 c 128,-1,20
 238 617 238 617 238 632 c 0,21,22
 238 663 238 663 250 684 c 0,0,1
EndSplineSet
EndChar

StartChar: parenleft
Encoding: 40 40 8
Width: 651
GlyphClass: 2
Flags: W
LayerCount: 2
Fore
SplineSet
476 -112 m 0,0,1
 476 -127 476 -127 464 -133.5 c 128,-1,2
 452 -140 452 -140 440 -140 c 0,3,4
 407 -140 407 -140 353 -76.5 c 128,-1,5
 299 -13 299 -13 252 79 c 128,-1,6
 205 171 205 171 191 245 c 0,7,8
 183 282 183 282 183 302 c 0,9,10
 183 331 183 331 195 384 c 128,-1,11
 207 437 207 437 248 597 c 0,12,13
 266 670 266 670 287.5 714 c 128,-1,14
 309 758 309 758 345 796 c 0,15,16
 391 844 391 844 423 844 c 0,17,18
 438 844 438 844 438 829 c 0,19,20
 438 811 438 811 398 749 c 0,21,22
 356 681 356 681 313 534.5 c 128,-1,23
 270 388 270 388 270 296 c 0,24,25
 270 246 270 246 279 214 c 128,-1,26
 288 182 288 182 320 121 c 0,27,28
 372 20 372 20 426 -33 c 0,29,30
 476 -81 476 -81 476 -112 c 0,0,1
EndSplineSet
EndChar

StartChar: parenright
Encoding: 41 41 9
Width: 636
GlyphClass: 2
Flags: W
LayerCount: 2
Fore
SplineSet
202 816 m 0,0,1
 202 837 202 837 225 837 c 0,2,3
 266 837 266 837 329 767.5 c 128,-1,4
 392 698 392 698 414 624 c 0,5,6
 447 519 447 519 447 337 c 0,7,8
 447 224 447 224 431 161 c 0,9,10
 413 90 413 90 389 35 c 128,-1,11
 365 -20 365 -20 341 -62 c 128,-1,12
 317 -104 317 -104 308 -128 c 0,13,14
 294 -167 294 -167 259 -167 c 0,15,16
 244 -167 244 -167 229.5 -162.5 c 128,-1,17
 215 -158 215 -158 215 -151 c 0,18,19
 215 -126 215 -126 273 -14 c 0,20,21
 301 39 301 39 315.5 72.5 c 128,-1,22
 330 106 330 106 346.5 184.5 c 128,-1,23
 363 263 363 263 363 356 c 0,24,25
 363 438 363 438 349.5 510 c 128,-1,26
 336 582 336 582 317.5 626 c 128,-1,27
 299 670 299 670 278.5 703 c 128,-1,28
 258 736 258 736 245.5 749 c 128,-1,29
 233 762 233 762 230 763 c 0,30,31
 219 767 219 767 210.5 784 c 128,-1,32
 202 801 202 801 202 816 c 0,0,1
EndSplineSet
EndChar

StartChar: asterisk
Encoding: 42 42 10
Width: 772
GlyphClass: 2
Flags: W
LayerCount: 2
Fore
SplineSet
600 408 m 0,0,1
 626 408 626 408 636 400 c 128,-1,2
 646 392 646 392 646 362 c 0,3,4
 646 345 646 345 631 337 c 128,-1,5
 616 329 616 329 564 318 c 2,6,-1
 517 308 l 1,7,-1
 561 273 l 2,8,9
 597 244 597 244 597 230 c 0,10,11
 597 219 597 219 583.5 196 c 128,-1,12
 570 173 570 173 557 173 c 0,13,14
 541 173 541 173 486 213.5 c 128,-1,15
 431 254 431 254 421 254 c 0,16,17
 414 254 414 254 414 237 c 0,18,19
 414 215 414 215 428 195 c 128,-1,20
 442 175 442 175 442 168 c 0,21,22
 442 152 442 152 425 139 c 128,-1,23
 408 126 408 126 384 126 c 0,24,25
 378 126 378 126 369 127.5 c 128,-1,26
 360 129 360 129 354 129 c 0,27,28
 326 129 326 129 298 107 c 128,-1,29
 270 85 270 85 249 85 c 0,30,31
 233 85 233 85 222.5 95 c 128,-1,32
 212 105 212 105 212 123 c 0,33,34
 212 144 212 144 250 189.5 c 128,-1,35
 288 235 288 235 288 246 c 0,36,37
 288 263 288 263 231 263 c 0,38,39
 194 263 194 263 167 275.5 c 128,-1,40
 140 288 140 288 140 302 c 0,41,42
 140 314 140 314 159 319 c 0,43,44
 207 334 207 334 256.5 356.5 c 128,-1,45
 306 379 306 379 306 386 c 0,46,47
 306 392 306 392 275.5 425 c 128,-1,48
 245 458 245 458 214.5 499.5 c 128,-1,49
 184 541 184 541 184 568 c 0,50,51
 184 584 184 584 194.5 593.5 c 128,-1,52
 205 603 205 603 218 603 c 0,53,54
 234 603 234 603 246.5 590.5 c 128,-1,55
 259 578 259 578 259 560 c 128,-1,56
 259 542 259 542 273 522.5 c 128,-1,57
 287 503 287 503 298 503 c 0,58,59
 306 503 306 503 306 535 c 0,60,61
 306 566 306 566 318.5 598.5 c 128,-1,62
 331 631 331 631 351 631 c 0,63,64
 365 631 365 631 372 616 c 128,-1,65
 379 601 379 601 384 565.5 c 128,-1,66
 389 530 389 530 393 514 c 0,67,68
 398 487 398 487 402 487 c 0,69,70
 408 487 408 487 437 529 c 0,71,72
 469 576 469 576 501.5 603.5 c 128,-1,73
 534 631 534 631 555 631 c 0,74,75
 567 631 567 631 576 622.5 c 128,-1,76
 585 614 585 614 585 601 c 0,77,78
 585 578 585 578 561 558 c 0,79,80
 544 544 544 544 510.5 485 c 128,-1,81
 477 426 477 426 477 411 c 0,82,83
 477 405 477 405 525 405 c 0,84,85
 541 405 541 405 565.5 406.5 c 128,-1,86
 590 408 590 408 600 408 c 0,0,1
EndSplineSet
EndChar

StartChar: plus
Encoding: 43 43 11
Width: 715
GlyphClass: 2
Flags: W
LayerCount: 2
Fore
SplineSet
586 419 m 0,0,1
 599 419 599 419 607 408 c 128,-1,2
 615 397 615 397 616.5 389 c 128,-1,3
 618 381 618 381 618 374 c 0,4,5
 618 363 618 363 610.5 356 c 128,-1,6
 603 349 603 349 584 345 c 128,-1,7
 565 341 565 341 545.5 338.5 c 128,-1,8
 526 336 526 336 489 332 c 128,-1,9
 452 328 452 328 421 323 c 2,10,-1
 386 316 l 1,11,-1
 378 20 l 1,12,-1
 312 20 l 1,13,-1
 304 320 l 1,14,-1
 236 309 l 2,15,16
 159 298 159 298 131 298 c 0,17,18
 106 298 106 298 97.5 305 c 128,-1,19
 89 312 89 312 89 330 c 0,20,21
 89 353 89 353 104.5 361.5 c 128,-1,22
 120 370 120 370 191 383 c 2,23,-1
 292 403 l 1,24,-1
 292 471 l 2,25,26
 292 536 292 536 300 560 c 0,27,28
 309 581 309 581 339 581 c 0,29,30
 360 581 360 581 366.5 566.5 c 128,-1,31
 373 552 373 552 379 488 c 2,32,-1
 388 395 l 1,33,-1
 462 403 l 2,34,35
 505 407 505 407 543.5 413 c 128,-1,36
 582 419 582 419 586 419 c 0,0,1
EndSplineSet
EndChar

StartChar: comma
Encoding: 44 44 12
Width: 496
GlyphClass: 2
Flags: W
LayerCount: 2
Fore
SplineSet
215 45 m 0,0,1
 258 131 258 131 279.5 163.5 c 128,-1,2
 301 196 301 196 315 196 c 0,3,4
 347 196 347 196 347 168 c 0,5,6
 347 130 347 130 283 8 c 0,7,8
 221 -108 221 -108 203.5 -134 c 128,-1,9
 186 -160 186 -160 170 -160 c 0,10,11
 147 -160 147 -160 147 -134 c 0,12,13
 147 -91 147 -91 215 45 c 0,0,1
EndSplineSet
EndChar

StartChar: hyphen
Encoding: 45 45 13
Width: 931
GlyphClass: 2
Flags: W
LayerCount: 2
Fore
SplineSet
229 447 m 0,0,1
 317 456 317 456 524 456 c 0,2,3
 695 456 695 456 751 450 c 128,-1,4
 807 444 807 444 820 423 c 0,5,6
 831 406 831 406 831 394 c 0,7,8
 831 367 831 367 756.5 357 c 128,-1,9
 682 347 682 347 459 342 c 2,10,-1
 118 334 l 1,11,-1
 123 385 l 2,12,13
 127 420 127 420 143 430 c 128,-1,14
 159 440 159 440 229 447 c 0,0,1
EndSplineSet
EndChar

StartChar: period
Encoding: 46 46 14
Width: 545
GlyphClass: 2
Flags: W
LayerCount: 2
Fore
SplineSet
137 16 m 0,0,1
 137 52 137 52 187.5 104.5 c 128,-1,2
 238 157 238 157 255 157 c 0,3,4
 276 157 276 157 276 173 c 0,5,6
 276 179 276 179 283.5 184 c 128,-1,7
 291 189 291 189 301 189 c 128,-1,8
 311 189 311 189 318 184 c 128,-1,9
 325 179 325 179 325 173 c 0,10,11
 325 157 325 157 354 157 c 0,12,13
 380 157 380 157 397.5 132 c 128,-1,14
 415 107 415 107 415 73 c 0,15,16
 415 18 415 18 363 -37.5 c 128,-1,17
 311 -93 311 -93 246 -93 c 0,18,19
 190 -93 190 -93 163.5 -54 c 128,-1,20
 137 -15 137 -15 137 16 c 0,0,1
266 12 m 0,21,22
 284 12 284 12 301.5 28 c 128,-1,23
 319 44 319 44 319 51 c 0,24,25
 319 56 319 56 306 56 c 0,26,27
 282 56 282 56 267 46 c 128,-1,28
 252 36 252 36 252 23 c 0,29,30
 252 12 252 12 266 12 c 0,21,22
EndSplineSet
EndChar

StartChar: slash
Encoding: 47 47 15
Width: 772
GlyphClass: 2
Flags: W
LayerCount: 2
Fore
SplineSet
603 866 m 0,0,1
 619 866 619 866 631.5 855.5 c 128,-1,2
 644 845 644 845 644 828 c 0,3,4
 644 812 644 812 620.5 763 c 128,-1,5
 597 714 597 714 579 661 c 0,6,7
 560 608 560 608 458.5 406.5 c 128,-1,8
 357 205 357 205 357 197 c 0,9,10
 357 184 357 184 305 84 c 2,11,-1
 219 -88 l 2,12,13
 184 -159 184 -159 159 -159 c 0,14,15
 129 -159 129 -159 129 -134 c 0,16,17
 129 -114 129 -114 144.5 -80.5 c 128,-1,18
 160 -47 160 -47 196 21.5 c 128,-1,19
 232 90 232 90 259 150 c 2,20,-1
 519 700 l 2,21,22
 533 730 533 730 543 765 c 128,-1,23
 553 800 553 800 557 819.5 c 128,-1,24
 561 839 561 839 572 852.5 c 128,-1,25
 583 866 583 866 603 866 c 0,0,1
EndSplineSet
EndChar

StartChar: zero
Encoding: 48 48 16
Width: 564
GlyphClass: 2
Flags: W
LayerCount: 2
Fore
SplineSet
194 473 m 0,0,1
 194 485 194 485 230 522.5 c 128,-1,2
 266 560 266 560 313 593.5 c 128,-1,3
 360 627 360 627 384 627 c 0,4,5
 419 627 419 627 460 574.5 c 128,-1,6
 501 522 501 522 501 433 c 0,7,8
 501 306 501 306 415 148 c 0,9,10
 380 83 380 83 343.5 49.5 c 128,-1,11
 307 16 307 16 257 2 c 0,12,13
 234 -4 234 -4 215 -4 c 0,14,15
 144 -4 144 -4 103 85 c 0,16,17
 81 130 81 130 81 152 c 0,18,19
 81 196 81 196 137.5 325.5 c 128,-1,20
 194 455 194 455 194 473 c 0,0,1
446 447 m 0,21,22
 446 550 446 550 381 550 c 0,23,24
 354 550 354 550 328 533 c 0,25,26
 275 498 275 498 213.5 363.5 c 128,-1,27
 152 229 152 229 152 145 c 0,28,29
 152 109 152 109 175.5 83 c 128,-1,30
 199 57 199 57 232 57 c 0,31,32
 254 57 254 57 272 67.5 c 128,-1,33
 290 78 290 78 321 107 c 0,34,35
 372 156 372 156 372 171 c 0,36,37
 372 179 372 179 390.5 218 c 128,-1,38
 409 257 409 257 427.5 319.5 c 128,-1,39
 446 382 446 382 446 447 c 0,21,22
EndSplineSet
EndChar

StartChar: one
Encoding: 49 49 17
Width: 352
GlyphClass: 2
Flags: W
LayerCount: 2
Fore
SplineSet
86 370 m 0,0,1
 78 370 78 370 71 376 c 128,-1,2
 64 382 64 382 64 393 c 128,-1,3
 64 404 64 404 69.5 412.5 c 128,-1,4
 75 421 75 421 90 437.5 c 128,-1,5
 105 454 105 454 118 472 c 2,6,-1
 151 516 l 2,7,8
 158 525 158 525 176 556.5 c 128,-1,9
 194 588 194 588 210.5 609.5 c 128,-1,10
 227 631 227 631 240 631 c 0,11,12
 261 631 261 631 268 567 c 0,13,14
 274 513 274 513 280 354.5 c 128,-1,15
 286 196 286 196 286 92 c 0,16,17
 286 26 286 26 283 19 c 0,18,19
 275 2 275 2 265 2 c 0,20,21
 251 2 251 2 239 37 c 0,22,23
 226 74 226 74 226 287 c 0,24,25
 225 503 225 503 214 503 c 0,26,27
 206 503 206 503 182 469.5 c 128,-1,28
 158 436 158 436 130.5 403 c 128,-1,29
 103 370 103 370 86 370 c 0,0,1
EndSplineSet
EndChar

StartChar: two
Encoding: 50 50 18
Width: 772
GlyphClass: 2
Flags: W
LayerCount: 2
Fore
SplineSet
605 84 m 0,0,1
 644 84 644 84 661.5 80 c 128,-1,2
 679 76 679 76 682.5 70.5 c 128,-1,3
 686 65 686 65 686 52 c 0,4,5
 686 36 686 36 669.5 34 c 128,-1,6
 653 32 653 32 593 29 c 128,-1,7
 533 26 533 26 466 13 c 0,8,9
 419 4 419 4 365 -3.5 c 128,-1,10
 311 -11 311 -11 286 -15.5 c 128,-1,11
 261 -20 261 -20 254 -27 c 0,12,13
 246 -34 246 -34 232 -34 c 0,14,15
 216 -34 216 -34 202.5 -25 c 128,-1,16
 189 -16 189 -16 189 -4 c 0,17,18
 189 9 189 9 222.5 52.5 c 128,-1,19
 256 96 256 96 284 121 c 0,20,21
 320 151 320 151 384.5 279.5 c 128,-1,22
 449 408 449 408 449 489 c 0,23,24
 449 522 449 522 430.5 534 c 128,-1,25
 412 546 412 546 367 546 c 0,26,27
 259 546 259 546 150 436 c 0,28,29
 82 370 82 370 78 370 c 0,30,31
 73 370 73 370 73 404 c 0,32,33
 73 439 73 439 99 453 c 0,34,35
 126 466 126 466 126 480 c 0,36,37
 126 491 126 491 153 512.5 c 128,-1,38
 180 534 180 534 210 554 c 0,39,40
 230 571 230 571 275.5 588.5 c 128,-1,41
 321 606 321 606 375 606 c 0,42,43
 466 606 466 606 493 556 c 0,44,45
 504 537 504 537 504 492 c 0,46,47
 504 410 504 410 474 333 c 0,48,49
 452 281 452 281 393.5 185.5 c 128,-1,50
 335 90 335 90 306 63 c 0,51,52
 295 52 295 52 295 49 c 0,53,54
 295 48 295 48 299 48 c 0,55,56
 300 48 300 48 349 57 c 128,-1,57
 398 66 398 66 471.5 75 c 128,-1,58
 545 84 545 84 605 84 c 0,0,1
EndSplineSet
EndChar

StartChar: three
Encoding: 51 51 19
Width: 568
GlyphClass: 2
Flags: W
LayerCount: 2
Fore
SplineSet
367 539 m 0,0,1
 346 539 346 539 283.5 529.5 c 128,-1,2
 221 520 221 520 166.5 510 c 128,-1,3
 112 500 112 500 110 500 c 0,4,5
 97 500 97 500 97 513 c 0,6,7
 97 531 97 531 85 531 c 0,8,9
 74 531 74 531 74 541 c 0,10,11
 74 549 74 549 125 562.5 c 128,-1,12
 176 576 176 576 235 587.5 c 128,-1,13
 294 599 294 599 353 609 c 128,-1,14
 412 619 412 619 415 620 c 0,15,16
 426 622 426 622 437.5 624.5 c 128,-1,17
 449 627 449 627 454.5 628 c 128,-1,18
 460 629 460 629 462 629 c 0,19,20
 472 629 472 629 483.5 614 c 128,-1,21
 495 599 495 599 495 587 c 128,-1,22
 495 575 495 575 426.5 497.5 c 128,-1,23
 358 420 358 420 358 416 c 0,24,25
 358 410 358 410 391 410 c 0,26,27
 419 410 419 410 456 374.5 c 128,-1,28
 493 339 493 339 502 304 c 0,29,30
 506 289 506 289 506 266 c 0,31,32
 506 182 506 182 463 114 c 0,33,34
 428 59 428 59 363 24.5 c 128,-1,35
 298 -10 298 -10 240 -10 c 0,36,37
 175 -10 175 -10 157 31 c 0,38,39
 143 59 143 59 143 93 c 0,40,41
 143 134 143 134 162 134 c 0,42,43
 179 134 179 134 194.5 114 c 128,-1,44
 210 94 210 94 210 71 c 0,45,46
 211 54 211 54 218.5 50 c 128,-1,47
 226 46 226 46 256 46 c 0,48,49
 297 46 297 46 342 70.5 c 128,-1,50
 387 95 387 95 414 132 c 0,51,52
 438 165 438 165 438 235 c 0,53,54
 438 297 438 297 422.5 322.5 c 128,-1,55
 407 348 407 348 368 348 c 0,56,57
 331 348 331 348 305.5 337 c 128,-1,58
 280 326 280 326 264 314.5 c 128,-1,59
 248 303 248 303 234 303 c 0,60,61
 219 303 219 303 210 312 c 128,-1,62
 201 321 201 321 201 336 c 0,63,64
 201 355 201 355 213 355 c 0,65,66
 226 355 226 355 254 385 c 0,67,68
 373 522 373 522 373 537 c 0,69,70
 373 539 373 539 367 539 c 0,0,1
EndSplineSet
EndChar

StartChar: four
Encoding: 52 52 20
Width: 564
GlyphClass: 2
Flags: W
LayerCount: 2
Fore
SplineSet
331 584 m 0,0,1
 343 584 343 584 351.5 598 c 128,-1,2
 360 612 360 612 370 612 c 128,-1,3
 380 612 380 612 387.5 603.5 c 128,-1,4
 395 595 395 595 395 587 c 0,5,6
 395 566 395 566 373 544 c 0,7,8
 356 525 356 525 352.5 506 c 128,-1,9
 349 487 349 487 349 417 c 0,10,11
 349 360 349 360 352 333.5 c 128,-1,12
 355 307 355 307 358.5 302.5 c 128,-1,13
 362 298 362 298 371 298 c 0,14,15
 385 298 385 298 414 308 c 128,-1,16
 443 318 443 318 450 323 c 1,17,18
 454 327 454 327 464 327 c 0,19,20
 480 327 480 327 495.5 317.5 c 128,-1,21
 511 308 511 308 511 294 c 0,22,23
 511 284 511 284 502 275.5 c 128,-1,24
 493 267 493 267 477 266 c 0,25,26
 447 262 447 262 403 248 c 2,27,-1
 358 233 l 1,28,-1
 362 149 l 2,29,30
 364 103 364 103 370 73 c 128,-1,31
 376 43 376 43 381 31 c 128,-1,32
 386 19 386 19 386 14 c 0,33,34
 386 4 386 4 375 -6.5 c 128,-1,35
 364 -17 364 -17 354 -17 c 0,36,37
 319 -17 319 -17 306 141 c 0,38,39
 301 188 301 188 298 201 c 128,-1,40
 295 214 295 214 287 214 c 1,41,-1
 208 197 l 2,42,43
 128 180 128 180 98 180 c 0,44,45
 62 180 62 180 62 202 c 128,-1,46
 62 224 62 224 100 282 c 0,47,48
 173 391 173 391 246.5 487 c 128,-1,49
 320 583 320 583 331 584 c 0,0,1
221 253 m 0,50,51
 277 265 277 265 289 272.5 c 128,-1,52
 301 280 301 280 301 305 c 0,53,54
 301 327 301 327 295 385 c 2,55,-1
 288 452 l 1,56,-1
 246 401 l 2,57,58
 217 365 217 365 180 307.5 c 128,-1,59
 143 250 143 250 143 240 c 0,60,61
 143 239 143 239 144 239 c 0,62,63
 154 239 154 239 221 253 c 0,50,51
EndSplineSet
EndChar

StartChar: five
Encoding: 53 53 21
Width: 497
GlyphClass: 2
Flags: W
LayerCount: 2
Fore
SplineSet
355 260 m 0,0,1
 355 308 355 308 343 338 c 128,-1,2
 331 368 331 368 311 368 c 0,3,4
 289 368 289 368 248.5 346 c 128,-1,5
 208 324 208 324 188 301 c 0,6,7
 163 273 163 273 153 273 c 0,8,9
 145 273 145 273 130 288 c 0,10,11
 113 305 113 305 113 445 c 0,12,13
 113 563 113 563 127 572 c 0,14,15
 137 578 137 578 249 583 c 128,-1,16
 361 588 361 588 392 595 c 0,17,18
 421 602 421 602 440 602 c 0,19,20
 464 602 464 602 464 588 c 0,21,22
 464 572 464 572 382.5 549 c 128,-1,23
 301 526 301 526 245 526 c 2,24,-1
 229 526 l 2,25,26
 161 526 161 526 161 476 c 0,27,28
 161 468 161 468 165.5 450.5 c 128,-1,29
 170 433 170 433 170 413 c 0,30,31
 170 404 170 404 168 390 c 2,32,-1
 162 359 l 1,33,-1
 196 380 l 2,34,35
 258 419 258 419 316 419 c 0,36,37
 337 419 337 419 347 414 c 0,38,39
 374 402 374 402 393 354.5 c 128,-1,40
 412 307 412 307 412 252 c 0,41,42
 412 229 412 229 407 202 c 0,43,44
 386 90 386 90 332.5 39 c 128,-1,45
 279 -12 279 -12 183 -12 c 0,46,47
 151 -12 151 -12 138 -5.5 c 128,-1,48
 125 1 125 1 104 27 c 0,49,50
 64 76 64 76 64 111 c 0,51,52
 64 136 64 136 71 136 c 0,53,54
 76 136 76 136 87 113 c 0,55,56
 107 76 107 76 136.5 61 c 128,-1,57
 166 46 166 46 218 46 c 0,58,59
 264 46 264 46 289.5 67.5 c 128,-1,60
 315 89 315 89 336 147 c 0,61,62
 355 198 355 198 355 260 c 0,0,1
EndSplineSet
EndChar

StartChar: six
Encoding: 54 54 22
Width: 443
GlyphClass: 2
Flags: W
LayerCount: 2
Fore
SplineSet
160 272 m 0,0,1
 166 272 166 272 196 292 c 128,-1,2
 226 312 226 312 248 312 c 0,3,4
 274 312 274 312 308 297 c 128,-1,5
 342 282 342 282 359 264 c 0,6,7
 382 238 382 238 382 195 c 0,8,9
 382 177 382 177 378 166 c 128,-1,10
 374 155 374 155 364 138.5 c 128,-1,11
 354 122 354 122 348 108 c 0,12,13
 339 87 339 87 297 49 c 128,-1,14
 255 11 255 11 232 2 c 0,15,16
 207 -7 207 -7 170 -7 c 0,17,18
 124 -7 124 -7 92 39.5 c 128,-1,19
 60 86 60 86 60 151 c 0,20,21
 60 185 60 185 86 289 c 128,-1,22
 112 393 112 393 138 480 c 2,23,-1
 164 566 l 2,24,25
 177 619 177 619 204 619 c 0,26,27
 225 619 225 619 225 600 c 0,28,29
 225 571 225 571 187 443.5 c 128,-1,30
 149 316 149 316 149 288 c 0,31,32
 149 272 149 272 160 272 c 0,0,1
121 155 m 0,33,34
 121 96 121 96 139 71 c 128,-1,35
 157 46 157 46 171 46 c 0,36,37
 186 46 186 46 257 87 c 0,38,39
 279 99 279 99 302.5 138 c 128,-1,40
 326 177 326 177 326 201 c 0,41,42
 326 219 326 219 320 228.5 c 128,-1,43
 314 238 314 238 297 246 c 0,44,45
 270 262 270 262 250 262 c 0,46,47
 230 261 230 261 199.5 245 c 128,-1,48
 169 229 169 229 146 207 c 0,49,50
 131 192 131 192 126 182 c 128,-1,51
 121 172 121 172 121 155 c 0,33,34
EndSplineSet
EndChar

StartChar: seven
Encoding: 55 55 23
Width: 439
GlyphClass: 2
Flags: W
LayerCount: 2
Fore
SplineSet
132 360 m 0,0,1
 122 360 122 360 117 363 c 128,-1,2
 112 366 112 366 109 373 c 128,-1,3
 106 380 106 380 105 393 c 128,-1,4
 104 406 104 406 104 425.5 c 128,-1,5
 104 445 104 445 104 473 c 2,6,-1
 104 583 l 1,7,-1
 266 614 l 2,8,9
 318 624 318 624 338 624 c 0,10,11
 362 624 362 624 372.5 612 c 128,-1,12
 383 600 383 600 383 572 c 0,13,14
 383 516 383 516 345.5 328.5 c 128,-1,15
 308 141 308 141 283 25 c 0,16,17
 279 4 279 4 273 -2 c 128,-1,18
 267 -8 267 -8 252 -8 c 128,-1,19
 237 -8 237 -8 233 -4.5 c 128,-1,20
 229 -1 229 -1 229 13 c 0,21,22
 229 58 229 58 266 225 c 0,23,24
 280 286 280 286 299 406 c 128,-1,25
 318 526 318 526 318 550 c 0,26,27
 318 554 318 554 316 554.5 c 128,-1,28
 314 555 314 555 295 555 c 0,29,30
 257 555 257 555 232 553 c 2,31,-1
 151 547 l 1,32,-1
 155 496 l 2,33,34
 156 487 156 487 156 465 c 0,35,36
 156 423 156 423 152 402 c 0,37,38
 149 377 149 377 145 368.5 c 128,-1,39
 141 360 141 360 132 360 c 0,0,1
EndSplineSet
EndChar

StartChar: eight
Encoding: 56 56 24
Width: 500
GlyphClass: 2
Flags: W
LayerCount: 2
Fore
SplineSet
200 590 m 0,0,1
 212 590 212 590 218 593.5 c 128,-1,2
 224 597 224 597 227 601 c 128,-1,3
 230 605 230 605 244.5 608.5 c 128,-1,4
 259 612 259 612 286 612 c 0,5,6
 328 612 328 612 360 597 c 128,-1,7
 392 582 392 582 408.5 560.5 c 128,-1,8
 425 539 425 539 432.5 520.5 c 128,-1,9
 440 502 440 502 440 490 c 0,10,11
 440 469 440 469 415.5 439 c 128,-1,12
 391 409 391 409 361 383.5 c 128,-1,13
 331 358 331 358 306.5 331.5 c 128,-1,14
 282 305 282 305 282 291 c 0,15,16
 282 278 282 278 305.5 249 c 128,-1,17
 329 220 329 220 352.5 178.5 c 128,-1,18
 376 137 376 137 376 94 c 0,19,20
 376 44 376 44 342.5 11 c 128,-1,21
 309 -22 309 -22 275 -22 c 0,22,23
 229 -22 229 -22 168.5 44.5 c 128,-1,24
 108 111 108 111 108 132 c 0,25,26
 108 150 108 150 135 208 c 128,-1,27
 162 266 162 266 162 279 c 0,28,29
 162 295 162 295 144 318.5 c 128,-1,30
 126 342 126 342 108 374 c 128,-1,31
 90 406 90 406 90 443 c 0,32,33
 90 498 90 498 126.5 544 c 128,-1,34
 163 590 163 590 200 590 c 0,0,1
396 486 m 0,35,36
 396 505 396 505 355 536 c 128,-1,37
 314 567 314 567 284 567 c 0,38,39
 278 567 278 567 275 566.5 c 128,-1,40
 272 566 272 566 266.5 564 c 128,-1,41
 261 562 261 562 256 559.5 c 128,-1,42
 251 557 251 557 237 550 c 128,-1,43
 223 543 223 543 207 535 c 0,44,45
 171 518 171 518 156.5 487 c 128,-1,46
 142 456 142 456 142 438 c 0,47,48
 142 415 142 415 174 373 c 128,-1,49
 206 331 206 331 212 331 c 0,50,51
 217 331 217 331 280 387 c 128,-1,52
 343 443 343 443 367 455 c 0,53,54
 396 472 396 472 396 486 c 0,35,36
273 35 m 0,55,56
 292 35 292 35 308.5 55 c 128,-1,57
 325 75 325 75 325 97 c 0,58,59
 325 137 325 137 265 204 c 0,60,61
 241 232 241 232 226 232 c 128,-1,62
 211 232 211 232 191 202 c 128,-1,63
 171 172 171 172 171 147 c 0,64,65
 171 112 171 112 208.5 73.5 c 128,-1,66
 246 35 246 35 273 35 c 0,55,56
EndSplineSet
EndChar

StartChar: nine
Encoding: 57 57 25
Width: 462
GlyphClass: 2
Flags: W
LayerCount: 2
Fore
SplineSet
309 80 m 0,0,1
 309 132 309 132 312.5 212.5 c 128,-1,2
 316 293 316 293 316 310 c 0,3,4
 316 350 316 350 305 350 c 0,5,6
 300 350 300 350 262 322 c 0,7,8
 243 307 243 307 226 302.5 c 128,-1,9
 209 298 209 298 176 298 c 0,10,11
 140 299 140 299 127 303.5 c 128,-1,12
 114 308 114 308 99 324 c 0,13,14
 69 358 69 358 69 395 c 0,15,16
 69 412 69 412 75 430 c 0,17,18
 93 492 93 492 135 532 c 128,-1,19
 177 572 177 572 252 600 c 0,20,21
 296 616 296 616 312 616 c 0,22,23
 319 616 319 616 330 613.5 c 128,-1,24
 341 611 341 611 358 604 c 128,-1,25
 375 597 375 597 386.5 579 c 128,-1,26
 398 561 398 561 398 534 c 0,27,28
 398 513 398 513 389 478 c 128,-1,29
 380 443 380 443 371.5 363 c 128,-1,30
 363 283 363 283 363 151 c 0,31,32
 363 106 363 106 364.5 78 c 128,-1,33
 366 50 366 50 367.5 43 c 128,-1,34
 369 36 369 36 370.5 30.5 c 128,-1,35
 372 25 372 25 372 19 c 0,36,37
 372 2 372 2 363.5 -10 c 128,-1,38
 355 -22 355 -22 341 -22 c 0,39,40
 322 -22 322 -22 315.5 -2 c 128,-1,41
 309 18 309 18 309 80 c 0,0,1
172 342 m 0,42,43
 191 342 191 342 217.5 353 c 128,-1,44
 244 364 244 364 271.5 384 c 128,-1,45
 299 404 299 404 317.5 440 c 128,-1,46
 336 476 336 476 336 519 c 0,47,48
 336 548 336 548 331 553.5 c 128,-1,49
 326 559 326 559 296 559 c 0,50,51
 224 559 224 559 180 515 c 0,52,53
 122 455 122 455 122 393 c 0,54,55
 122 342 122 342 172 342 c 0,42,43
EndSplineSet
EndChar

StartChar: colon
Encoding: 58 58 26
Width: 401
GlyphClass: 2
Flags: W
LayerCount: 2
Fore
SplineSet
144 75 m 0,0,1
 144 96 144 96 161.5 115.5 c 128,-1,2
 179 135 179 135 195 135 c 0,3,4
 214 135 214 135 222.5 115.5 c 128,-1,5
 231 96 231 96 231 84 c 0,6,7
 231 77 231 77 224 60 c 128,-1,8
 217 43 217 43 214 33 c 0,9,10
 205 -2 205 -2 185 -2 c 0,11,12
 168 -2 168 -2 156 25 c 128,-1,13
 144 52 144 52 144 75 c 0,0,1
138 444 m 0,14,15
 138 462 138 462 151 490.5 c 128,-1,16
 164 519 164 519 181 519 c 0,17,18
 194 519 194 519 213 497 c 0,19,20
 231 475 231 475 231 444 c 0,21,22
 231 425 231 425 229 419 c 128,-1,23
 227 413 227 413 220 413 c 0,24,25
 208 413 208 413 203 391 c 0,26,27
 200 378 200 378 195.5 373.5 c 128,-1,28
 191 369 191 369 181 369 c 128,-1,29
 171 369 171 369 164.5 376 c 128,-1,30
 158 383 158 383 149 404 c 0,31,32
 138 430 138 430 138 444 c 0,14,15
EndSplineSet
EndChar

StartChar: semicolon
Encoding: 59 59 27
Width: 367
GlyphClass: 2
Flags: W
LayerCount: 2
Fore
SplineSet
202 126 m 0,0,1
 211 135 211 135 221 135 c 0,2,3
 238 135 238 135 238 117 c 0,4,5
 238 100 238 100 199 4.5 c 128,-1,6
 160 -91 160 -91 150 -95 c 0,7,8
 144 -97 144 -97 141 -97 c 0,9,10
 133 -97 133 -97 126.5 -91 c 128,-1,11
 120 -85 120 -85 120 -76 c 0,12,13
 120 -61 120 -61 156 27.5 c 128,-1,14
 192 116 192 116 202 126 c 0,0,1
218 295 m 0,15,16
 192 295 192 295 170 311.5 c 128,-1,17
 148 328 148 328 148 370 c 0,18,19
 148 399 148 399 155.5 411.5 c 128,-1,20
 163 424 163 424 184 431 c 0,21,22
 206 438 206 438 216 438 c 0,23,24
 228 438 228 438 238.5 421.5 c 128,-1,25
 249 405 249 405 249 369 c 0,26,27
 249 345 249 345 241.5 320 c 128,-1,28
 234 295 234 295 218 295 c 0,15,16
EndSplineSet
EndChar

StartChar: less
Encoding: 60 60 28
Width: 545
GlyphClass: 2
Flags: W
LayerCount: 2
Fore
SplineSet
430 19 m 0,0,1
 430 10 430 10 415 -5 c 128,-1,2
 400 -20 400 -20 389 -20 c 0,3,4
 380 -20 380 -20 373 -7 c 0,5,6
 367 6 367 6 304 50 c 0,7,8
 225 105 225 105 149.5 197 c 128,-1,9
 74 289 74 289 74 329 c 0,10,11
 74 354 74 354 170 442 c 2,12,-1
 326 583 l 2,13,14
 395 646 395 646 418 646 c 0,15,16
 430 646 430 646 435 636.5 c 128,-1,17
 440 627 440 627 440 619 c 0,18,19
 440 607 440 607 429 595 c 128,-1,20
 418 583 418 583 384 553 c 128,-1,21
 350 523 350 523 323 496 c 2,22,-1
 215 395 l 2,23,24
 192 373 192 373 175 351 c 128,-1,25
 158 329 158 329 158 321 c 0,26,27
 158 301 158 301 233.5 214 c 128,-1,28
 309 127 309 127 351 99 c 0,29,30
 381 78 381 78 405.5 54 c 128,-1,31
 430 30 430 30 430 19 c 0,0,1
EndSplineSet
EndChar

StartChar: equal
Encoding: 61 61 29
Width: 515
GlyphClass: 2
Flags: W
LayerCount: 2
Fore
SplineSet
275 262 m 0,0,1
 351 262 351 262 375.5 257.5 c 128,-1,2
 400 253 400 253 400 241 c 0,3,4
 400 224 400 224 344 212 c 128,-1,5
 288 200 288 200 205 200 c 0,6,7
 138 200 138 200 123 203.5 c 128,-1,8
 108 207 108 207 108 221 c 0,9,10
 108 237 108 237 119.5 242.5 c 128,-1,11
 131 248 131 248 173 256 c 0,12,13
 198 262 198 262 275 262 c 0,0,1
312 406 m 0,14,15
 346 406 346 406 356 402 c 128,-1,16
 366 398 366 398 366 384 c 0,17,18
 366 365 366 365 336.5 357 c 128,-1,19
 307 349 307 349 208 341 c 0,20,21
 164 338 164 338 146 338 c 128,-1,22
 128 338 128 338 122 342 c 128,-1,23
 116 346 116 346 113 357 c 0,24,25
 109 369 109 369 109 379 c 0,26,27
 109 382 109 382 109.5 383 c 128,-1,28
 110 384 110 384 119.5 386.5 c 128,-1,29
 129 389 129 389 143.5 391 c 128,-1,30
 158 393 158 393 194 398 c 0,31,32
 274 406 274 406 312 406 c 0,14,15
EndSplineSet
EndChar

StartChar: greater
Encoding: 62 62 30
Width: 594
GlyphClass: 2
Flags: W
LayerCount: 2
Fore
SplineSet
125 566 m 0,0,1
 125 576 125 576 140 582 c 128,-1,2
 155 588 155 588 164 588 c 0,3,4
 169 588 169 588 197.5 568.5 c 128,-1,5
 226 549 226 549 243 532 c 0,6,7
 297 483 297 483 363.5 433.5 c 128,-1,8
 430 384 430 384 459.5 360 c 128,-1,9
 489 336 489 336 489 319 c 0,10,11
 489 304 489 304 467.5 272.5 c 128,-1,12
 446 241 446 241 373 143 c 0,13,14
 274 10 274 10 268 -9 c 0,15,16
 264 -19 264 -19 250.5 -26 c 128,-1,17
 237 -33 237 -33 223 -33 c 128,-1,18
 209 -33 209 -33 200.5 -26.5 c 128,-1,19
 192 -20 192 -20 192 -13 c 0,20,21
 192 -3 192 -3 210.5 24 c 128,-1,22
 229 51 229 51 239 55 c 0,23,24
 248 58 248 58 271.5 90.5 c 128,-1,25
 295 123 295 123 377 244 c 0,26,27
 414 300 414 300 414 313 c 0,28,29
 414 318 414 318 383 344.5 c 128,-1,30
 352 371 352 371 309 401 c 0,31,32
 125 533 125 533 125 566 c 0,0,1
EndSplineSet
EndChar

StartChar: question
Encoding: 63 63 31
Width: 632
GlyphClass: 2
Flags: W
LayerCount: 2
Fore
SplineSet
263 36 m 0,0,1
 263 71 263 71 272.5 85.5 c 128,-1,2
 282 100 282 100 290 100 c 128,-1,3
 298 100 298 100 326.5 80.5 c 128,-1,4
 355 61 355 61 355 55 c 1,5,-1
 348 36 l 2,6,7
 341 18 341 18 325.5 -0.5 c 128,-1,8
 310 -19 310 -19 292 -19 c 0,9,10
 263 -19 263 -19 263 36 c 0,0,1
186 685 m 0,11,12
 186 667 186 667 211 622 c 128,-1,13
 236 577 236 577 252 577 c 0,14,15
 273 577 273 577 290.5 602.5 c 128,-1,16
 308 628 308 628 308 639 c 0,17,18
 308 648 308 648 289 648 c 0,19,20
 271 648 271 648 271 661 c 128,-1,21
 271 674 271 674 285.5 683.5 c 128,-1,22
 300 693 300 693 311 693 c 0,23,24
 323 693 323 693 334.5 678.5 c 128,-1,25
 346 664 346 664 346 639 c 0,26,27
 346 608 346 608 327.5 577 c 128,-1,28
 309 546 309 546 267 546 c 0,29,30
 228 546 228 546 185.5 591.5 c 128,-1,31
 143 637 143 637 143 687 c 0,32,33
 143 740 143 740 202 791 c 128,-1,34
 261 842 261 842 315 842 c 0,35,36
 372 842 372 842 417.5 783 c 128,-1,37
 463 724 463 724 463 656 c 0,38,39
 463 577 463 577 363 448 c 2,40,-1
 328 402 l 1,41,-1
 329 327 l 2,42,43
 329 322 329 322 329.5 313 c 128,-1,44
 330 304 330 304 330 300 c 0,45,46
 330 231 330 231 310 231 c 0,47,48
 294 231 294 231 287.5 254.5 c 128,-1,49
 281 278 281 278 281 338 c 0,50,51
 281 400 281 400 290.5 429 c 128,-1,52
 300 458 300 458 338 493 c 0,53,54
 374 525 374 525 395.5 573 c 128,-1,55
 417 621 417 621 417 667 c 0,56,57
 417 699 417 699 407 722 c 0,58,59
 399 744 399 744 368.5 769 c 128,-1,60
 338 794 338 794 317 794 c 0,61,62
 282 794 282 794 234 754.5 c 128,-1,63
 186 715 186 715 186 685 c 0,11,12
EndSplineSet
EndChar

StartChar: at
Encoding: 64 64 32
Width: 704
GlyphClass: 2
Flags: W
LayerCount: 2
Fore
SplineSet
555 252 m 0,0,1
 555 248 555 248 572.5 243 c 128,-1,2
 590 238 590 238 590 220 c 0,3,4
 590 201 590 201 574.5 157 c 128,-1,5
 559 113 559 113 521 59.5 c 128,-1,6
 483 6 483 6 435 -13 c 0,7,8
 413 -21 413 -21 337 -21 c 0,9,10
 282 -21 282 -21 259 -16 c 0,11,12
 230 -11 230 -11 182 21 c 128,-1,13
 134 53 134 53 130 69 c 0,14,15
 123 90 123 90 117 90 c 0,16,17
 105 90 105 90 92.5 154.5 c 128,-1,18
 80 219 80 219 80 282 c 0,19,20
 80 365 80 365 96 415.5 c 128,-1,21
 112 466 112 466 157 523 c 0,22,23
 190 564 190 564 218.5 581.5 c 128,-1,24
 247 599 247 599 307 616 c 0,25,26
 355 630 355 630 419 630 c 0,27,28
 461 630 461 630 479 622 c 0,29,30
 505 608 505 608 536 572.5 c 128,-1,31
 567 537 567 537 578 506 c 0,32,33
 589 478 589 478 589 422 c 0,34,35
 589 370 589 370 580.5 331 c 128,-1,36
 572 292 572 292 563.5 273.5 c 128,-1,37
 555 255 555 255 555 252 c 0,0,1
441 366 m 0,38,39
 441 353 441 353 434.5 328 c 128,-1,40
 428 303 428 303 428 280 c 0,41,42
 428 228 428 228 451 228 c 0,43,44
 461 228 461 228 484 250.5 c 128,-1,45
 507 273 507 273 507 283 c 0,46,47
 507 292 507 292 519 292 c 0,48,49
 528 292 528 292 536.5 330 c 128,-1,50
 545 368 545 368 545 405 c 0,51,52
 545 426 545 426 542 439 c 0,53,54
 527 495 527 495 520.5 512.5 c 128,-1,55
 514 530 514 530 504.5 540.5 c 128,-1,56
 495 551 495 551 467 567 c 0,57,58
 421 593 421 593 390 593 c 0,59,60
 356 593 356 593 276 554 c 0,61,62
 229 530 229 530 208.5 508 c 128,-1,63
 188 486 188 486 162 430 c 0,64,65
 144 392 144 392 139.5 368 c 128,-1,66
 135 344 135 344 135 288 c 0,67,68
 135 229 135 229 140.5 197 c 128,-1,69
 146 165 146 165 165 116 c 0,70,71
 176 87 176 87 228.5 57 c 128,-1,72
 281 27 281 27 364 27 c 0,73,74
 392 27 392 27 428 50 c 0,75,76
 455 67 455 67 469.5 84.5 c 128,-1,77
 484 102 484 102 503 142 c 0,78,79
 535 208 535 208 535 214 c 0,80,81
 535 216 535 216 508 199 c 128,-1,82
 481 182 481 182 451 182 c 0,83,84
 429 182 429 182 418.5 187 c 128,-1,85
 408 192 408 192 396 208 c 0,86,87
 377 236 377 236 377 245 c 0,88,89
 377 255 377 255 372 255 c 0,90,91
 363 255 363 255 344 227 c 0,92,93
 328 203 328 203 303 188 c 128,-1,94
 278 173 278 173 253 173 c 0,95,96
 223 173 223 173 204 202.5 c 128,-1,97
 185 232 185 232 185 274 c 0,98,99
 185 311 185 311 199 340 c 0,100,101
 215 375 215 375 265 429.5 c 128,-1,102
 315 484 315 484 332 484 c 0,103,104
 360 484 360 484 400.5 443.5 c 128,-1,105
 441 403 441 403 441 366 c 0,38,39
299 213 m 0,106,107
 321 213 321 213 321 248 c 0,108,109
 321 264 321 264 330 264 c 0,110,111
 340 264 340 264 340 292 c 0,112,113
 340 307 340 307 343 317.5 c 128,-1,114
 346 328 346 328 352 341.5 c 128,-1,115
 358 355 358 355 362 367 c 0,116,117
 367 383 367 383 385 383 c 0,118,119
 404 383 404 383 404 390 c 0,120,121
 404 399 404 399 373.5 418.5 c 128,-1,122
 343 438 343 438 329 438 c 0,123,124
 313 438 313 438 284.5 409.5 c 128,-1,125
 256 381 256 381 256 365 c 0,126,127
 256 356 256 356 244 337.5 c 128,-1,128
 232 319 232 319 232 281 c 0,129,130
 232 261 232 261 241 246 c 128,-1,131
 250 231 250 231 263 224.5 c 128,-1,132
 276 218 276 218 285 215.5 c 128,-1,133
 294 213 294 213 299 213 c 0,106,107
EndSplineSet
EndChar

StartChar: A
Encoding: 65 65 33
Width: 738
GlyphClass: 2
Flags: W
LayerCount: 2
Fore
SplineSet
68 -6 m 0,0,1
 68 9 68 9 89 39.5 c 128,-1,2
 110 70 110 70 110 84 c 0,3,4
 110 103 110 103 124 108 c 0,5,6
 135 112 135 112 153.5 162 c 128,-1,7
 172 212 172 212 186 229 c 0,8,9
 200 245 200 245 217 283 c 128,-1,10
 234 321 234 321 283 449 c 0,11,12
 314 529 314 529 369 642 c 128,-1,13
 424 755 424 755 437 764 c 0,14,15
 449 771 449 771 453 771 c 0,16,17
 460 771 460 771 473 762 c 0,18,19
 484 754 484 754 516.5 649 c 128,-1,20
 549 544 549 544 549 514 c 0,21,22
 550 494 550 494 568 423.5 c 128,-1,23
 586 353 586 353 593 312 c 0,24,25
 599 271 599 271 624.5 182.5 c 128,-1,26
 650 94 650 94 650 73 c 128,-1,27
 650 52 650 52 636 52 c 0,28,29
 625 52 625 52 605 63 c 0,30,31
 594 69 594 69 588 75 c 128,-1,32
 582 81 582 81 577 96 c 128,-1,33
 572 111 572 111 569 123.5 c 128,-1,34
 566 136 566 136 558.5 173 c 128,-1,35
 551 210 551 210 543 243 c 2,36,-1
 524 322 l 1,37,-1
 475 316 l 2,38,39
 421 308 421 308 356 303 c 2,40,-1
 286 297 l 1,41,-1
 257 242 l 2,42,43
 176 91 176 91 148 23 c 0,44,45
 125 -31 125 -31 99 -31 c 0,46,47
 88 -31 88 -31 78 -25 c 128,-1,48
 68 -19 68 -19 68 -6 c 0,0,1
503 406 m 0,49,50
 503 433 503 433 480.5 536.5 c 128,-1,51
 458 640 458 640 447 640 c 0,52,53
 439 640 439 640 395.5 551.5 c 128,-1,54
 352 463 352 463 325 391 c 2,55,-1
 313 360 l 1,56,-1
 392 366 l 2,57,58
 465 372 465 372 484 378.5 c 128,-1,59
 503 385 503 385 503 406 c 0,49,50
EndSplineSet
EndChar

StartChar: B
Encoding: 66 66 34
Width: 655
GlyphClass: 2
Flags: W
LayerCount: 2
Fore
SplineSet
328 24 m 0,0,1
 315 24 315 24 291 15.5 c 128,-1,2
 267 7 267 7 256 7 c 0,3,4
 241 7 241 7 231.5 21 c 128,-1,5
 222 35 222 35 217.5 57.5 c 128,-1,6
 213 80 213 80 209.5 119.5 c 128,-1,7
 206 159 206 159 203.5 199 c 128,-1,8
 201 239 201 239 196 299 c 128,-1,9
 191 359 191 359 184 413 c 0,10,11
 173 512 173 512 167 587 c 2,12,-1
 160 677 l 1,13,-1
 121 677 l 2,14,15
 71 677 71 677 71 699 c 0,16,17
 71 731 71 731 225 771 c 0,18,19
 287 787 287 787 407 787 c 0,20,21
 453 787 453 787 468.5 782.5 c 128,-1,22
 484 778 484 778 500 761 c 0,23,24
 525 732 525 732 525 714 c 0,25,26
 525 668 525 668 499.5 616 c 128,-1,27
 474 564 474 564 448.5 528 c 128,-1,28
 423 492 423 492 423 485 c 0,29,30
 423 479 423 479 437 479 c 0,31,32
 457 479 457 479 497.5 454.5 c 128,-1,33
 538 430 538 430 550 410 c 0,34,35
 574 371 574 371 574 295 c 0,36,37
 574 176 574 176 507.5 94 c 128,-1,38
 441 12 441 12 382 12 c 0,39,40
 372 12 372 12 356 18 c 128,-1,41
 340 24 340 24 328 24 c 0,0,1
457 715 m 0,42,43
 442 731 442 731 384 731 c 0,44,45
 348 731 348 731 318 726 c 0,46,47
 292 723 292 723 274.5 718.5 c 128,-1,48
 257 714 257 714 247 712.5 c 128,-1,49
 237 711 237 711 232 705 c 128,-1,50
 227 699 227 699 226 692.5 c 128,-1,51
 225 686 225 686 225 672 c 2,52,-1
 225 652 l 2,53,54
 225 591 225 591 237 509 c 0,55,56
 244 455 244 455 250 439.5 c 128,-1,57
 256 424 256 424 270 424 c 0,58,59
 292 424 292 424 356.5 499 c 128,-1,60
 421 574 421 574 446 628 c 0,61,62
 471 684 471 684 471 692 c 0,63,64
 471 699 471 699 457 715 c 0,42,43
521 281 m 0,65,66
 521 412 521 412 424 412 c 0,67,68
 399 412 399 412 373.5 404.5 c 128,-1,69
 348 397 348 397 316.5 382.5 c 128,-1,70
 285 368 285 368 273 364 c 0,71,72
 263 360 263 360 259.5 352 c 128,-1,73
 256 344 256 344 256 317 c 128,-1,74
 256 290 256 290 259 230 c 0,75,76
 261 194 261 194 262.5 173.5 c 128,-1,77
 264 153 264 153 266.5 133 c 128,-1,78
 269 113 269 113 274 104 c 128,-1,79
 279 95 279 95 284.5 86.5 c 128,-1,80
 290 78 290 78 301 75 c 128,-1,81
 312 72 312 72 323.5 70.5 c 128,-1,82
 335 69 335 69 355 68 c 0,83,84
 360 68 360 68 368 67.5 c 128,-1,85
 376 67 376 67 379 67 c 0,86,87
 404 67 404 67 417 76 c 128,-1,88
 430 85 430 85 462 123 c 0,89,90
 496 161 496 161 508.5 190.5 c 128,-1,91
 521 220 521 220 521 281 c 0,65,66
EndSplineSet
EndChar

StartChar: C
Encoding: 67 67 35
Width: 727
GlyphClass: 2
Flags: W
LayerCount: 2
Fore
SplineSet
651 307 m 0,0,1
 651 295 651 295 634.5 262 c 128,-1,2
 618 229 618 229 586.5 186 c 128,-1,3
 555 143 555 143 516.5 103.5 c 128,-1,4
 478 64 478 64 427 37 c 128,-1,5
 376 10 376 10 327 10 c 0,6,7
 206 10 206 10 131 164 c 0,8,9
 121 184 121 184 121 300 c 0,10,11
 121 509 121 509 141 579 c 0,12,13
 166 671 166 671 264 740.5 c 128,-1,14
 362 810 362 810 450 810 c 0,15,16
 496 810 496 810 534.5 780.5 c 128,-1,17
 573 751 573 751 573 715 c 0,18,19
 573 702 573 702 558 702 c 0,20,21
 547 702 547 702 535 709 c 128,-1,22
 523 716 523 716 517 727 c 0,23,24
 507 749 507 749 486 749 c 0,25,26
 434 749 434 749 360.5 714 c 128,-1,27
 287 679 287 679 248 636 c 0,28,29
 215 600 215 600 198 525 c 128,-1,30
 181 450 181 450 181 298 c 0,31,32
 181 226 181 226 200 181 c 128,-1,33
 219 136 219 136 255 108 c 128,-1,34
 291 80 291 80 329 80 c 0,35,36
 355 80 355 80 402 102 c 128,-1,37
 449 124 449 124 468 145 c 2,38,-1
 519 196 l 2,39,40
 543 219 543 219 569.5 255.5 c 128,-1,41
 596 292 596 292 612.5 314 c 128,-1,42
 629 336 629 336 640 336 c 128,-1,43
 651 336 651 336 651 307 c 0,0,1
EndSplineSet
EndChar

StartChar: D
Encoding: 68 68 36
Width: 855
GlyphClass: 2
Flags: W
LayerCount: 2
Fore
SplineSet
58 671 m 0,0,1
 58 685 58 685 71 705 c 128,-1,2
 84 725 84 725 95 725 c 0,3,4
 108 725 108 725 125 749 c 0,5,6
 141 773 141 773 223 782 c 0,7,8
 328 792 328 792 361 792 c 0,9,10
 403 792 403 792 464 781 c 0,11,12
 639 751 639 751 710 692.5 c 128,-1,13
 781 634 781 634 781 516 c 0,14,15
 781 411 781 411 745.5 317 c 128,-1,16
 710 223 710 223 654 160 c 128,-1,17
 598 97 598 97 536 55.5 c 128,-1,18
 474 14 474 14 415 0 c 0,19,20
 390 -6 390 -6 378 -19.5 c 128,-1,21
 366 -33 366 -33 365 -45 c 128,-1,22
 364 -57 364 -57 355.5 -66.5 c 128,-1,23
 347 -76 347 -76 328 -76 c 0,24,25
 297 -76 297 -76 297 -64 c 0,26,27
 297 -57 297 -57 289 -52 c 128,-1,28
 281 -47 281 -47 271.5 -44 c 128,-1,29
 262 -41 262 -41 254 -31 c 128,-1,30
 246 -21 246 -21 246 -5 c 0,31,32
 246 22 246 22 265 29 c 128,-1,33
 284 36 284 36 284 114 c 0,34,35
 284 155 284 155 279 197.5 c 128,-1,36
 274 240 274 240 262.5 326.5 c 128,-1,37
 251 413 251 413 241 518 c 2,38,-1
 225 691 l 1,39,-1
 189 688 l 2,40,41
 166 686 166 686 145 671.5 c 128,-1,42
 124 657 124 657 111 644 c 128,-1,43
 98 631 98 631 91 631 c 128,-1,44
 84 631 84 631 71 645.5 c 128,-1,45
 58 660 58 660 58 671 c 0,0,1
297 668 m 0,46,47
 297 637 297 637 325.5 433 c 128,-1,48
 354 229 354 229 354 167 c 0,49,50
 354 147 354 147 352 127 c 2,51,-1
 344 76 l 1,52,-1
 398 76 l 2,53,54
 487 76 487 76 600 202 c 0,55,56
 664 274 664 274 686.5 347 c 128,-1,57
 709 420 709 420 709 525 c 0,58,59
 709 569 709 569 702.5 586 c 128,-1,60
 696 603 696 603 673 629 c 0,61,62
 650 654 650 654 621 666 c 128,-1,63
 592 678 592 678 526 691 c 0,64,65
 421 711 421 711 345 711 c 0,66,67
 317 711 317 711 307 704 c 128,-1,68
 297 697 297 697 297 668 c 0,46,47
EndSplineSet
EndChar

StartChar: E
Encoding: 69 69 37
Width: 579
GlyphClass: 2
Flags: W
LayerCount: 2
Fore
SplineSet
66 623 m 0,0,1
 66 666 66 666 80 686.5 c 128,-1,2
 94 707 94 707 105 707 c 128,-1,3
 116 707 116 707 141 720.5 c 128,-1,4
 166 734 166 734 195.5 750 c 128,-1,5
 225 766 225 766 279 779.5 c 128,-1,6
 333 793 333 793 394 793 c 0,7,8
 485 793 485 793 485 764 c 0,9,10
 485 750 485 750 389 733 c 0,11,12
 311 720 311 720 242 695.5 c 128,-1,13
 173 671 173 671 149 648 c 0,14,15
 134 633 134 633 134 605 c 0,16,17
 134 599 134 599 135.5 581.5 c 128,-1,18
 137 564 137 564 141 526 c 128,-1,19
 145 488 145 488 148 451 c 0,20,21
 154 368 154 368 165 368 c 0,22,23
 168 368 168 368 172 371 c 0,24,25
 189 381 189 381 286.5 404 c 128,-1,26
 384 427 384 427 409 427 c 0,27,28
 439 427 439 427 439 402 c 0,29,30
 439 384 439 384 405 370 c 128,-1,31
 371 356 371 356 269 330 c 0,32,33
 194 312 194 312 176.5 303 c 128,-1,34
 159 294 159 294 159 275 c 0,35,36
 159 248 159 248 161 150 c 2,37,-1
 164 64 l 1,38,-1
 215 64 l 2,39,40
 260 64 260 64 329.5 82.5 c 128,-1,41
 399 101 399 101 445 126 c 0,42,43
 476 143 476 143 487 143 c 0,44,45
 497 143 497 143 507 131.5 c 128,-1,46
 517 120 517 120 517 109 c 0,47,48
 517 74 517 74 408.5 31.5 c 128,-1,49
 300 -11 300 -11 196 -11 c 0,50,51
 133 -11 133 -11 120 8 c 0,52,53
 109 21 109 21 103 87.5 c 128,-1,54
 97 154 97 154 89.5 286.5 c 128,-1,55
 82 419 82 419 73 513 c 0,56,57
 66 586 66 586 66 623 c 0,0,1
EndSplineSet
EndChar

StartChar: F
Encoding: 70 70 38
Width: 602
GlyphClass: 2
Flags: W
LayerCount: 2
Fore
SplineSet
314 765 m 0,0,1
 348 765 348 765 377.5 777 c 128,-1,2
 407 789 407 789 461 789 c 0,3,4
 504 789 504 789 520.5 782.5 c 128,-1,5
 537 776 537 776 537 757 c 0,6,7
 537 748 537 748 532 742 c 128,-1,8
 527 736 527 736 505 730 c 128,-1,9
 483 724 483 724 464.5 720 c 128,-1,10
 446 716 446 716 391.5 706 c 128,-1,11
 337 696 337 696 294 687 c 2,12,-1
 193 666 l 1,13,-1
 193 586 l 2,14,15
 193 505 193 505 200 463 c 2,16,-1
 207 419 l 1,17,-1
 271 426 l 2,18,19
 328 434 328 434 388 434 c 0,20,21
 465 434 465 434 465 419 c 0,22,23
 465 405 465 405 418 387 c 128,-1,24
 371 369 371 369 300 356 c 2,25,-1
 216 341 l 1,26,-1
 224 182 l 2,27,28
 227 122 227 122 227 86 c 0,29,30
 227 42 227 42 221.5 26 c 128,-1,31
 216 10 216 10 202 10 c 0,32,33
 193 10 193 10 182 14 c 0,34,35
 167 18 167 18 163 33 c 128,-1,36
 159 48 159 48 159 96 c 0,37,38
 159 142 159 142 141.5 274.5 c 128,-1,39
 124 407 124 407 124 544 c 2,40,-1
 124 713 l 1,41,-1
 197 739 l 2,42,43
 271 765 271 765 314 765 c 0,0,1
EndSplineSet
EndChar

StartChar: G
Encoding: 71 71 39
Width: 700
GlyphClass: 2
Flags: W
LayerCount: 2
Fore
SplineSet
378 344 m 0,0,1
 346 344 346 344 315 356 c 128,-1,2
 284 368 284 368 284 395 c 0,3,4
 284 412 284 412 299 421 c 128,-1,5
 314 430 314 430 333 436 c 128,-1,6
 352 442 352 442 357 451 c 0,7,8
 362 459 362 459 392 459 c 0,9,10
 431 459 431 459 484 447 c 128,-1,11
 537 435 537 435 554 421 c 0,12,13
 583 397 583 397 598.5 300 c 128,-1,14
 614 203 614 203 614 77 c 0,15,16
 614 11 614 11 596 -1 c 0,17,18
 588 -8 588 -8 578 -8 c 128,-1,19
 568 -8 568 -8 557 2 c 0,20,21
 537 21 537 21 537 132 c 2,22,-1
 537 246 l 1,23,-1
 505 193 l 2,24,25
 448 99 448 99 376 46.5 c 128,-1,26
 304 -6 304 -6 237 -6 c 0,27,28
 198 -6 198 -6 164 13 c 0,29,30
 138 27 138 27 125.5 46.5 c 128,-1,31
 113 66 113 66 100 115 c 0,32,33
 85 167 85 167 85 210 c 0,34,35
 85 240 85 240 91 289 c 0,36,37
 101 369 101 369 119.5 415 c 128,-1,38
 138 461 138 461 192 541 c 0,39,40
 230 597 230 597 275 637 c 128,-1,41
 320 677 320 677 352.5 692 c 128,-1,42
 385 707 385 707 411.5 720.5 c 128,-1,43
 438 734 438 734 444 744 c 0,44,45
 454 761 454 761 495 761 c 0,46,47
 539 761 539 761 567.5 742.5 c 128,-1,48
 596 724 596 724 596 705 c 0,49,50
 596 693 596 693 584 669.5 c 128,-1,51
 572 646 572 646 559 646 c 0,52,53
 548 646 548 646 541 669.5 c 128,-1,54
 534 693 534 693 519 693 c 128,-1,55
 504 693 504 693 481 687 c 128,-1,56
 458 681 458 681 422.5 662 c 128,-1,57
 387 643 387 643 351.5 615 c 128,-1,58
 316 587 316 587 275 536.5 c 128,-1,59
 234 486 234 486 201 422 c 0,60,61
 171 364 171 364 164 335 c 128,-1,62
 157 306 157 306 157 238 c 0,63,64
 157 140 157 140 174 104.5 c 128,-1,65
 191 69 191 69 238 69 c 0,66,67
 338 69 338 69 403 155 c 0,68,69
 435 198 435 198 458 248 c 128,-1,70
 481 298 481 298 481 324 c 0,71,72
 481 340 481 340 468.5 352.5 c 128,-1,73
 456 365 456 365 443 365 c 0,74,75
 435 365 435 365 421.5 354.5 c 128,-1,76
 408 344 408 344 378 344 c 0,0,1
EndSplineSet
EndChar

StartChar: H
Encoding: 72 72 40
Width: 666
GlyphClass: 2
Flags: W
LayerCount: 2
Fore
SplineSet
597 71 m 0,0,1
 597 57 597 57 588.5 48.5 c 128,-1,2
 580 40 580 40 573.5 38.5 c 128,-1,3
 567 37 567 37 562 37 c 0,4,5
 538 37 538 37 528 86.5 c 128,-1,6
 518 136 518 136 515 267 c 0,7,8
 511 456 511 456 500 456 c 0,9,10
 491 456 491 456 413.5 420 c 128,-1,11
 336 384 336 384 264 356 c 2,12,-1
 180 324 l 1,13,-1
 186 143 l 2,14,15
 188 73 188 73 188 52 c 0,16,17
 188 -60 188 -60 165 -60 c 0,18,19
 160 -60 160 -60 149 -53 c 0,20,21
 128 -38 128 -38 118 49 c 128,-1,22
 108 136 108 136 96 405 c 0,23,24
 88 588 88 588 88 695 c 0,25,26
 88 782 88 782 96 801 c 0,27,28
 102 816 102 816 111 826.5 c 128,-1,29
 120 837 120 837 127 837 c 0,30,31
 143 837 143 837 159 628.5 c 128,-1,32
 175 420 175 420 191 420 c 0,33,34
 193 420 193 420 206 425.5 c 128,-1,35
 219 431 219 431 271.5 450 c 128,-1,36
 324 469 324 469 404 494 c 0,37,38
 473 517 473 517 484 528 c 0,39,40
 497 539 497 539 506 617 c 0,41,42
 514 689 514 689 522 713.5 c 128,-1,43
 530 738 530 738 547 738 c 0,44,45
 569 738 569 738 576.5 675 c 128,-1,46
 584 612 584 612 585 407 c 0,47,48
 587 292 587 292 589 217.5 c 128,-1,49
 591 143 591 143 593 121 c 128,-1,50
 595 99 595 99 596 88 c 128,-1,51
 597 77 597 77 597 71 c 0,0,1
EndSplineSet
EndChar

StartChar: I
Encoding: 73 73 41
Width: 587
GlyphClass: 2
Flags: W
LayerCount: 2
Fore
SplineSet
390 117 m 1,0,-1
 402 124 l 2,1,2
 414 132 414 132 428 132 c 0,3,4
 444 132 444 132 455.5 123.5 c 128,-1,5
 467 115 467 115 467 101 c 0,6,7
 467 79 467 79 434 59.5 c 128,-1,8
 401 40 401 40 309 5 c 0,9,10
 249 -18 249 -18 223 -18 c 0,11,12
 207 -18 207 -18 180 -10 c 0,13,14
 151 -2 151 -2 140 7 c 128,-1,15
 129 16 129 16 129 30 c 0,16,17
 129 45 129 45 137 50 c 128,-1,18
 145 55 145 55 168 55 c 0,19,20
 203 55 203 55 257 78 c 2,21,-1
 307 101 l 1,22,-1
 298 288 l 2,23,24
 289 475 289 475 289 584 c 2,25,-1
 289 691 l 1,26,-1
 260 683 l 2,27,28
 211 669 211 669 165 669 c 0,29,30
 107 669 107 669 107 691 c 0,31,32
 107 704 107 704 142 719.5 c 128,-1,33
 177 735 177 735 231.5 752 c 128,-1,34
 286 769 286 769 301 775 c 0,35,36
 312 780 312 780 366 780 c 0,37,38
 435 780 435 780 454 773 c 0,39,40
 461 770 461 770 467 760 c 128,-1,41
 473 750 473 750 473 741 c 0,42,43
 473 723 473 723 456 714.5 c 128,-1,44
 439 706 439 706 390 700 c 2,45,-1
 360 696 l 1,46,-1
 362 522 l 2,47,48
 369 117 369 117 390 117 c 1,0,-1
EndSplineSet
EndChar

StartChar: J
Encoding: 74 74 42
Width: 689
GlyphClass: 2
Flags: W
LayerCount: 2
Fore
SplineSet
346 644 m 0,0,1
 323 644 323 644 224.5 619 c 128,-1,2
 126 594 126 594 103 594 c 0,3,4
 85 594 85 594 79 604 c 0,5,6
 69 622 69 622 69 632 c 0,7,8
 69 654 69 654 123 673 c 128,-1,9
 177 692 177 692 354 734 c 2,10,-1
 591 793 l 1,11,-1
 592 793 l 2,12,13
 597 793 597 793 617.5 778.5 c 128,-1,14
 638 764 638 764 638 753 c 0,15,16
 638 732 638 732 552 706.5 c 128,-1,17
 466 681 466 681 461 677 c 0,18,19
 452 670 452 670 452 571 c 2,20,-1
 452 527 l 2,21,22
 452 427 452 427 439 283.5 c 128,-1,23
 426 140 426 140 412 83 c 0,24,25
 398 31 398 31 371.5 -11 c 128,-1,26
 345 -53 345 -53 325 -53 c 0,27,28
 299 -53 299 -53 266 -35 c 128,-1,29
 233 -17 233 -17 233 -3 c 0,30,31
 233 14 233 14 217 25 c 0,32,33
 197 37 197 37 147.5 128.5 c 128,-1,34
 98 220 98 220 98 263 c 0,35,36
 98 315 98 315 147 315 c 0,37,38
 176 315 176 315 182.5 301 c 128,-1,39
 189 287 189 287 191 238 c 0,40,41
 192 197 192 197 201 169.5 c 128,-1,42
 210 142 210 142 232 107 c 0,43,44
 261 62 261 62 276.5 43.5 c 128,-1,45
 292 25 292 25 304 25 c 0,46,47
 315 25 315 25 327 40 c 0,48,49
 348 66 348 66 367 211 c 128,-1,50
 386 356 386 356 386 494 c 2,51,-1
 386 547 l 2,52,53
 386 605 386 605 379 624.5 c 128,-1,54
 372 644 372 644 346 644 c 0,0,1
EndSplineSet
EndChar

StartChar: K
Encoding: 75 75 43
Width: 779
GlyphClass: 2
Flags: W
LayerCount: 2
Fore
SplineSet
94 740 m 0,0,1
 94 756 94 756 94 768.5 c 128,-1,2
 94 781 94 781 94.5 791 c 128,-1,3
 95 801 95 801 96.5 808.5 c 128,-1,4
 98 816 98 816 100.5 821 c 128,-1,5
 103 826 103 826 107.5 828.5 c 128,-1,6
 112 831 112 831 118 831 c 0,7,8
 139 831 139 831 153 805 c 0,9,10
 165 781 165 781 167 672 c 0,11,12
 167 563 167 563 176 507 c 2,13,-1
 185 451 l 1,14,-1
 283 556 l 2,15,16
 382 661 382 661 397 661 c 0,17,18
 409 661 409 661 435.5 687 c 128,-1,19
 462 713 462 713 474 713 c 128,-1,20
 486 713 486 713 508 732 c 128,-1,21
 530 751 530 751 549 751 c 0,22,23
 566 751 566 751 578.5 739.5 c 128,-1,24
 591 728 591 728 591 709 c 0,25,26
 591 697 591 697 581.5 690 c 128,-1,27
 572 683 572 683 547 675 c 0,28,29
 500 662 500 662 358 520 c 128,-1,30
 216 378 216 378 216 346 c 0,31,32
 216 341 216 341 385 249 c 0,33,34
 455 211 455 211 508 180 c 128,-1,35
 561 149 561 149 580 136.5 c 128,-1,36
 599 124 599 124 611 118 c 128,-1,37
 623 112 623 112 631 112 c 0,38,39
 649 112 649 112 689.5 76.5 c 128,-1,40
 730 41 730 41 730 26 c 0,41,42
 730 7 730 7 720 7 c 0,43,44
 701 7 701 7 632 32 c 128,-1,45
 563 57 563 57 532 75 c 0,46,47
 467 114 467 114 340 178.5 c 128,-1,48
 213 243 213 243 203 243 c 128,-1,49
 193 243 193 243 193 217 c 0,50,51
 193 206 193 206 202.5 122.5 c 128,-1,52
 212 39 212 39 212 -6 c 0,53,54
 212 -66 212 -66 186 -66 c 0,55,56
 170 -66 170 -66 159.5 -58.5 c 128,-1,57
 149 -51 149 -51 142.5 -33 c 128,-1,58
 136 -15 136 -15 132 15.5 c 128,-1,59
 128 46 128 46 124 91.5 c 128,-1,60
 120 137 120 137 115 199 c 0,61,62
 94 470 94 470 94 740 c 0,0,1
EndSplineSet
EndChar

StartChar: L
Encoding: 76 76 44
Width: 708
GlyphClass: 2
Flags: W
LayerCount: 2
Fore
SplineSet
97 752 m 0,0,1
 97 759 97 759 96.5 767 c 128,-1,2
 96 775 96 775 100 781.5 c 128,-1,3
 104 788 104 788 112 788 c 0,4,5
 132 788 132 788 147 751 c 0,6,7
 160 718 160 718 173 436 c 0,8,9
 187 141 187 141 196 101 c 0,10,11
 203 70 203 70 222 68 c 0,12,13
 226 67 226 67 234 67 c 0,14,15
 261 67 261 67 354 88.5 c 128,-1,16
 447 110 447 110 530.5 131.5 c 128,-1,17
 614 153 614 153 617 153 c 0,18,19
 634 153 634 153 644.5 140 c 128,-1,20
 655 127 655 127 655 119 c 0,21,22
 655 112 655 112 636 94 c 0,23,24
 604 68 604 68 450 29 c 128,-1,25
 296 -10 296 -10 204 -10 c 0,26,27
 190 -10 190 -10 182.5 -9.5 c 128,-1,28
 175 -9 175 -9 165.5 -6.5 c 128,-1,29
 156 -4 156 -4 152 1.5 c 128,-1,30
 148 7 148 7 141 17 c 128,-1,31
 134 27 134 27 133 41.5 c 128,-1,32
 132 56 132 56 127 77 c 128,-1,33
 122 98 122 98 122 126 c 128,-1,34
 122 154 122 154 117.5 191 c 128,-1,35
 113 228 113 228 113 274 c 128,-1,36
 113 320 113 320 109 377 c 0,37,38
 108 389 108 389 108 396 c 0,39,40
 97 646 97 646 97 752 c 0,0,1
EndSplineSet
EndChar

StartChar: M
Encoding: 77 77 45
Width: 727
GlyphClass: 2
Flags: W
LayerCount: 2
Fore
SplineSet
112 -71 m 0,0,1
 95 -71 95 -71 86.5 -32 c 128,-1,2
 78 7 78 7 74.5 119 c 128,-1,3
 71 231 71 231 71 467 c 0,4,5
 71 774 71 774 83 789 c 0,6,7
 97 808 97 808 120 808 c 0,8,9
 133 808 133 808 145.5 782 c 128,-1,10
 158 756 158 756 178 687 c 0,11,12
 208 578 208 578 247.5 490.5 c 128,-1,13
 287 403 287 403 304 403 c 128,-1,14
 321 403 321 403 376 496.5 c 128,-1,15
 431 590 431 590 502 741 c 0,16,17
 515 769 515 769 536 786 c 128,-1,18
 557 803 557 803 577 803 c 0,19,20
 591 803 591 803 599 795 c 0,21,22
 621 775 621 775 628 705.5 c 128,-1,23
 635 636 635 636 637 413 c 0,24,25
 638 278 638 278 643 193 c 128,-1,26
 648 108 648 108 653.5 85.5 c 128,-1,27
 659 63 659 63 663 48 c 128,-1,28
 667 33 667 33 667 19 c 0,29,30
 667 -12 667 -12 639 -12 c 0,31,32
 623 -12 623 -12 608 -2 c 128,-1,33
 593 8 593 8 587 24 c 0,34,35
 580 43 580 43 569 353.5 c 128,-1,36
 558 664 558 664 550 664 c 0,37,38
 541 664 541 664 511 597 c 0,39,40
 475 515 475 515 418 416 c 0,41,42
 397 379 397 379 354.5 349.5 c 128,-1,43
 312 320 312 320 280 320 c 0,44,45
 272 320 272 320 251 345.5 c 128,-1,46
 230 371 230 371 209 407 c 2,47,-1
 158 494 l 1,48,-1
 158 236 l 2,49,50
 157 46 157 46 148.5 -12.5 c 128,-1,51
 140 -71 140 -71 112 -71 c 0,0,1
EndSplineSet
EndChar

StartChar: N
Encoding: 78 78 46
Width: 829
GlyphClass: 2
Flags: W
LayerCount: 2
Fore
SplineSet
170 314 m 0,0,1
 170 263 170 263 174 225 c 128,-1,2
 178 187 178 187 178 177 c 0,3,4
 178 126 178 126 164.5 79.5 c 128,-1,5
 151 33 151 33 135 33 c 0,6,7
 111 34 111 34 101.5 42 c 128,-1,8
 92 50 92 50 87 82.5 c 128,-1,9
 82 115 82 115 82 189 c 0,10,11
 82 317 82 317 89 531.5 c 128,-1,12
 96 746 96 746 102 761 c 0,13,14
 113 786 113 786 143 786 c 0,15,16
 160 786 160 786 177 775 c 0,17,18
 190 767 190 767 251.5 679.5 c 128,-1,19
 313 592 313 592 313 582 c 0,20,21
 313 577 313 577 367 489.5 c 128,-1,22
 421 402 421 402 486 275 c 0,23,24
 590 70 590 70 622 70 c 0,25,26
 628 70 628 70 631.5 75.5 c 128,-1,27
 635 81 635 81 641 103 c 128,-1,28
 647 125 647 125 652.5 182 c 128,-1,29
 658 239 658 239 663 329 c 0,30,31
 663 330 663 330 664 338 c 0,32,33
 668 409 668 409 670 440.5 c 128,-1,34
 672 472 672 472 675.5 520.5 c 128,-1,35
 679 569 679 569 681.5 586.5 c 128,-1,36
 684 604 684 604 687 633 c 128,-1,37
 690 662 690 662 694 669.5 c 128,-1,38
 698 677 698 677 702.5 690.5 c 128,-1,39
 707 704 707 704 713 706.5 c 128,-1,40
 719 709 719 709 725.5 711.5 c 128,-1,41
 732 714 732 714 742 714 c 0,42,43
 759 714 759 714 766.5 701 c 128,-1,44
 774 688 774 688 774 656 c 0,45,46
 774 632 774 632 759.5 500 c 128,-1,47
 745 368 745 368 734 222 c 0,48,49
 723 70 723 70 709.5 24.5 c 128,-1,50
 696 -21 696 -21 659 -21 c 0,51,52
 594 -21 594 -21 542 31 c 128,-1,53
 490 83 490 83 435 195 c 0,54,55
 408 249 408 249 387 287.5 c 128,-1,56
 366 326 366 326 359 337.5 c 128,-1,57
 352 349 352 349 347 360.5 c 128,-1,58
 342 372 342 372 337 391 c 0,59,60
 330 422 330 422 266 520.5 c 128,-1,61
 202 619 202 619 201 622 c 0,62,63
 200 624 200 624 198 624 c 0,64,65
 188 624 188 624 179 518.5 c 128,-1,66
 170 413 170 413 170 314 c 0,0,1
EndSplineSet
EndChar

StartChar: O
Encoding: 79 79 47
Width: 655
GlyphClass: 2
Flags: W
LayerCount: 2
Fore
SplineSet
607 473 m 0,0,1
 607 392 607 392 586.5 305.5 c 128,-1,2
 566 219 566 219 537.5 157 c 128,-1,3
 509 95 509 95 478.5 54.5 c 128,-1,4
 448 14 448 14 428 14 c 0,5,6
 412 14 412 14 407 -2 c 0,7,8
 404 -11 404 -11 363.5 -18.5 c 128,-1,9
 323 -26 323 -26 279 -26 c 0,10,11
 252 -26 252 -26 236 -19.5 c 128,-1,12
 220 -13 220 -13 194 7 c 0,13,14
 141 49 141 49 101 138.5 c 128,-1,15
 61 228 61 228 61 307 c 0,16,17
 61 398 61 398 102 488.5 c 128,-1,18
 143 579 143 579 206 624 c 0,19,20
 266 666 266 666 286 666 c 0,21,22
 299 666 299 666 327 693 c 128,-1,23
 355 720 355 720 372 720 c 0,24,25
 391 720 391 720 403.5 733.5 c 128,-1,26
 416 747 416 747 440 747 c 0,27,28
 515 747 515 747 561 672.5 c 128,-1,29
 607 598 607 598 607 473 c 0,0,1
552 492 m 0,30,31
 552 521 552 521 523.5 578 c 128,-1,32
 495 635 495 635 484 642 c 0,33,34
 472 650 472 650 446 650 c 0,35,36
 402 650 402 650 332 627 c 0,37,38
 180 579 180 579 146 374 c 0,39,40
 136 312 136 312 136 293 c 0,41,42
 136 264 136 264 160 193 c 0,43,44
 214 42 214 42 307 42 c 0,45,46
 333 42 333 42 363 54 c 0,47,48
 398 67 398 67 448.5 141.5 c 128,-1,49
 499 216 499 216 507 265 c 0,50,51
 512 306 512 306 532 389 c 128,-1,52
 552 472 552 472 552 492 c 0,30,31
EndSplineSet
EndChar

StartChar: P
Encoding: 80 80 48
Width: 651
GlyphClass: 2
Flags: W
LayerCount: 2
Fore
SplineSet
229 795 m 0,0,1
 261 795 261 795 307.5 803.5 c 128,-1,2
 354 812 354 812 384 812 c 0,3,4
 397 812 397 812 402 811 c 0,5,6
 442 806 442 806 460 803 c 128,-1,7
 478 800 478 800 506.5 793.5 c 128,-1,8
 535 787 535 787 547.5 778 c 128,-1,9
 560 769 560 769 574.5 754 c 128,-1,10
 589 739 589 739 594 717.5 c 128,-1,11
 599 696 599 696 599 666 c 0,12,13
 599 622 599 622 587 574.5 c 128,-1,14
 575 527 575 527 563 527 c 0,15,16
 550 527 550 527 550 508 c 0,17,18
 550 485 550 485 490 430 c 128,-1,19
 430 375 430 375 396 368 c 0,20,21
 355 357 355 357 349 346 c 0,22,23
 342 333 342 333 284 333 c 2,24,-1
 225 333 l 1,25,-1
 235 153 l 2,26,27
 239 84 239 84 239 32 c 0,28,29
 239 -32 239 -32 228 -48 c 0,30,31
 211 -68 211 -68 199 -68 c 0,32,33
 177 -68 177 -68 171 -23 c 0,34,35
 161 54 161 54 146 269 c 128,-1,36
 131 484 131 484 131 558 c 2,37,-1
 131 665 l 1,38,-1
 101 644 l 2,39,40
 81 630 81 630 66 630 c 0,41,42
 60 630 60 630 53.5 637 c 128,-1,43
 47 644 47 644 47 654 c 0,44,45
 47 682 47 682 104 742 c 0,46,47
 136 776 136 776 152 787 c 128,-1,48
 168 798 168 798 185 798 c 0,49,50
 190 798 190 798 202 796.5 c 128,-1,51
 214 795 214 795 229 795 c 0,0,1
447 720 m 0,52,53
 394 732 394 732 374 732 c 128,-1,54
 354 732 354 732 282 717 c 0,55,56
 229 706 229 706 216 690 c 128,-1,57
 203 674 203 674 203 617 c 0,58,59
 203 559 203 559 210 491 c 128,-1,60
 217 423 217 423 225 414 c 0,61,62
 229 409 229 409 248 409 c 0,63,64
 280 409 280 409 334 423.5 c 128,-1,65
 388 438 388 438 421 456 c 0,66,67
 441 467 441 467 455 482.5 c 128,-1,68
 469 498 469 498 470 510 c 0,69,70
 473 532 473 532 505.5 574.5 c 128,-1,71
 538 617 538 617 538 644 c 0,72,73
 538 700 538 700 447 720 c 0,52,53
EndSplineSet
EndChar

StartChar: Q
Encoding: 81 81 49
Width: 761
GlyphClass: 2
Flags: W
LayerCount: 2
Fore
SplineSet
116 547 m 0,0,1
 167 650 167 650 262 698.5 c 128,-1,2
 357 747 357 747 528 759 c 2,3,-1
 531 759 l 2,4,5
 557 759 557 759 583.5 728 c 128,-1,6
 610 697 610 697 630 643 c 0,7,8
 645 602 645 602 645 536 c 0,9,10
 645 420 645 420 602 279 c 2,11,-1
 571 177 l 1,12,-1
 606 151 l 2,13,14
 660 110 660 110 699 63 c 128,-1,15
 738 16 738 16 738 -6 c 0,16,17
 738 -18 738 -18 724 -18 c 0,18,19
 713 -18 713 -18 686 -4 c 128,-1,20
 659 10 659 10 643 24 c 0,21,22
 639 27 639 27 578 71 c 2,23,-1
 528 106 l 1,24,-1
 508 74 l 2,25,26
 470 13 470 13 411.5 -21 c 128,-1,27
 353 -55 353 -55 289 -55 c 0,28,29
 213 -55 213 -55 156 -8 c 0,30,31
 119 22 119 22 84.5 109.5 c 128,-1,32
 50 197 50 197 50 259 c 0,33,34
 50 330 50 330 68 408.5 c 128,-1,35
 86 487 86 487 116 547 c 0,0,1
506 237 m 0,36,37
 520 237 520 237 555.5 362.5 c 128,-1,38
 591 488 591 488 591 532 c 0,39,40
 591 559 591 559 581 576.5 c 128,-1,41
 571 594 571 594 546 620 c 128,-1,42
 521 646 521 646 494.5 653.5 c 128,-1,43
 468 661 468 661 384 661 c 0,44,45
 332 661 332 661 318 657 c 0,46,47
 284 645 284 645 224.5 581.5 c 128,-1,48
 165 518 165 518 165 494 c 0,49,50
 165 472 165 472 152 457 c 0,51,52
 145 450 145 450 136.5 380.5 c 128,-1,53
 128 311 128 311 128 252 c 0,54,55
 128 199 128 199 151 138 c 0,56,57
 176 74 176 74 207 48.5 c 128,-1,58
 238 23 238 23 292 23 c 0,59,60
 350 23 350 23 409 61.5 c 128,-1,61
 468 100 468 100 469 138 c 0,62,63
 469 150 469 150 434.5 185.5 c 128,-1,64
 400 221 400 221 349 260 c 0,65,66
 319 283 319 283 319 292 c 0,67,68
 319 299 319 299 330.5 311.5 c 128,-1,69
 342 324 342 324 352 324 c 0,70,71
 367 324 367 324 431.5 280.5 c 128,-1,72
 496 237 496 237 506 237 c 0,36,37
EndSplineSet
EndChar

StartChar: R
Encoding: 82 82 50
Width: 636
GlyphClass: 2
Flags: W
LayerCount: 2
Fore
SplineSet
57 622 m 0,0,1
 57 639 57 639 102 690 c 128,-1,2
 147 741 147 741 159 741 c 0,3,4
 198 741 198 741 326 725 c 128,-1,5
 454 709 454 709 478 701 c 0,6,7
 545 682 545 682 545 610 c 0,8,9
 545 576 545 576 528.5 540.5 c 128,-1,10
 512 505 512 505 492 481.5 c 128,-1,11
 472 458 472 458 455.5 438 c 128,-1,12
 439 418 439 418 439 413 c 0,13,14
 439 406 439 406 381.5 368.5 c 128,-1,15
 324 331 324 331 280 308 c 0,16,17
 244 288 244 288 244 283 c 0,18,19
 244 282 244 282 329 251.5 c 128,-1,20
 414 221 414 221 454 194 c 0,21,22
 500 162 500 162 510 162 c 0,23,24
 524 161 524 161 555.5 128.5 c 128,-1,25
 587 96 587 96 587 82 c 0,26,27
 587 57 587 57 569 57 c 0,28,29
 550 57 550 57 460 107 c 128,-1,30
 370 157 370 157 306 182 c 2,31,-1
 228 213 l 1,32,-1
 232 96 l 2,33,34
 233 69 233 69 233 33 c 0,35,36
 233 10 233 10 232.5 2 c 128,-1,37
 232 -6 232 -6 226 -15 c 128,-1,38
 220 -24 220 -24 206 -24 c 0,39,40
 168 -24 168 -24 168 98 c 0,41,42
 168 226 168 226 127 245 c 0,43,44
 97 258 97 258 97 281 c 0,45,46
 97 302 97 302 126 316 c 2,47,-1
 159 331 l 1,48,-1
 151 445 l 2,49,50
 145 536 145 536 138.5 571.5 c 128,-1,51
 132 607 132 607 121 607 c 0,52,53
 118 607 118 607 109 600 c 128,-1,54
 100 593 100 593 87 593 c 0,55,56
 75 593 75 593 66 601 c 128,-1,57
 57 609 57 609 57 622 c 0,0,1
486 617 m 0,58,59
 486 621 486 621 484 623 c 128,-1,60
 482 625 482 625 465.5 631 c 128,-1,61
 449 637 449 637 412 647 c 0,62,63
 344 666 344 666 274 666 c 2,64,-1
 202 666 l 1,65,-1
 209 612 l 2,66,67
 211 595 211 595 222 479.5 c 128,-1,68
 233 364 233 364 236 364 c 0,69,70
 250 364 250 364 310 397 c 128,-1,71
 370 430 370 430 394 452 c 0,72,73
 420 475 420 475 453 535 c 128,-1,74
 486 595 486 595 486 617 c 0,58,59
EndSplineSet
EndChar

StartChar: S
Encoding: 83 83 51
Width: 579
GlyphClass: 2
Flags: W
LayerCount: 2
Fore
SplineSet
175 188 m 0,0,1
 175 168 175 168 160 152.5 c 128,-1,2
 145 137 145 137 145 127 c 0,3,4
 145 116 145 116 152 101 c 0,5,6
 162 79 162 79 177.5 74 c 128,-1,7
 193 69 193 69 254 69 c 0,8,9
 306 69 306 69 332 75 c 128,-1,10
 358 81 358 81 382 99 c 0,11,12
 421 127 421 127 430.5 143.5 c 128,-1,13
 440 160 440 160 440 200 c 0,14,15
 440 230 440 230 429 242.5 c 128,-1,16
 418 255 418 255 370 277 c 0,17,18
 301 309 301 309 281 309 c 0,19,20
 238 309 238 309 149.5 384 c 128,-1,21
 61 459 61 459 61 496 c 0,22,23
 61 549 61 549 115 617.5 c 128,-1,24
 169 686 169 686 236 718 c 0,25,26
 270 735 270 735 365 735 c 0,27,28
 407 735 407 735 428 729 c 128,-1,29
 449 723 449 723 473 703 c 0,30,31
 490 689 490 689 503 670.5 c 128,-1,32
 516 652 516 652 516 642 c 0,33,34
 516 618 516 618 508 618 c 128,-1,35
 500 618 500 618 487 628 c 128,-1,36
 474 638 474 638 460 649.5 c 128,-1,37
 446 661 446 661 420 671 c 128,-1,38
 394 681 394 681 363 681 c 0,39,40
 279 681 279 681 209.5 620 c 128,-1,41
 140 559 140 559 140 488 c 0,42,43
 140 430 140 430 346 364 c 0,44,45
 508 313 508 313 508 205 c 0,46,47
 508 183 508 183 500 154 c 0,48,49
 477 76 477 76 422 46 c 128,-1,50
 367 16 367 16 230 7 c 2,51,-1
 140 1 l 1,52,-1
 113 57 l 2,53,54
 92 98 92 98 92 139 c 0,55,56
 92 173 92 173 108 194 c 128,-1,57
 124 215 124 215 153 215 c 0,58,59
 175 215 175 215 175 188 c 0,0,1
EndSplineSet
EndChar

StartChar: T
Encoding: 84 84 52
Width: 832
GlyphClass: 2
Flags: W
LayerCount: 2
Fore
SplineSet
221 620 m 0,0,1
 188 620 188 620 152 612 c 128,-1,2
 116 604 116 604 105 604 c 0,3,4
 80 604 80 604 62.5 613 c 128,-1,5
 45 622 45 622 45 636 c 0,6,7
 45 648 45 648 54 654 c 128,-1,8
 63 660 63 660 101 667.5 c 128,-1,9
 139 675 139 675 186.5 681.5 c 128,-1,10
 234 688 234 688 340.5 705.5 c 128,-1,11
 447 723 447 723 564 746 c 0,12,13
 675 767 675 767 708 767 c 0,14,15
 739 767 739 767 771 754 c 128,-1,16
 803 741 803 741 803 725 c 0,17,18
 803 710 803 710 777 699.5 c 128,-1,19
 751 689 751 689 708 689 c 0,20,21
 641 689 641 689 565 671 c 2,22,-1
 488 653 l 1,23,-1
 503 569 l 2,24,25
 514 491 514 491 529.5 270.5 c 128,-1,26
 545 50 545 50 548 24 c 256,27,28
 551 -2 551 -2 551 -15 c 0,29,30
 551 -46 551 -46 524 -46 c 0,31,32
 498 -46 498 -46 485.5 19 c 128,-1,33
 473 84 473 84 462 274 c 0,34,35
 442 598 442 598 410 632 c 0,36,37
 402 640 402 640 384 640 c 0,38,39
 376 640 376 640 315.5 630 c 128,-1,40
 255 620 255 620 221 620 c 0,0,1
EndSplineSet
EndChar

StartChar: U
Encoding: 85 85 53
Width: 677
GlyphClass: 2
Flags: W
LayerCount: 2
Fore
SplineSet
628 519 m 0,0,1
 627 415 627 415 608.5 328 c 128,-1,2
 590 241 590 241 560 186 c 128,-1,3
 530 131 530 131 495.5 90 c 128,-1,4
 461 49 461 49 425 28.5 c 128,-1,5
 389 8 389 8 362.5 -1.5 c 128,-1,6
 336 -11 336 -11 318 -11 c 0,7,8
 288 -11 288 -11 248 5 c 128,-1,9
 208 21 208 21 186 42 c 0,10,11
 143 84 143 84 119 306 c 128,-1,12
 95 528 95 528 95 663 c 0,13,14
 95 724 95 724 111 737 c 0,15,16
 125 748 125 748 133 748 c 0,17,18
 145 748 145 748 151 722.5 c 128,-1,19
 157 697 157 697 162 630 c 0,20,21
 174 468 174 468 200 290.5 c 128,-1,22
 226 113 226 113 242 90 c 0,23,24
 261 59 261 59 297 59 c 0,25,26
 334 59 334 59 387 93 c 0,27,28
 446 130 446 130 480.5 186.5 c 128,-1,29
 515 243 515 243 539 341 c 0,30,31
 560 425 560 425 560 489 c 0,32,33
 560 559 560 559 533.5 643.5 c 128,-1,34
 507 728 507 728 507 736 c 0,35,36
 507 750 507 750 519.5 756 c 128,-1,37
 532 762 532 762 541 762 c 0,38,39
 561 762 561 762 574.5 733.5 c 128,-1,40
 588 705 588 705 598.5 667.5 c 128,-1,41
 609 630 609 630 618 620 c 0,42,43
 628 610 628 610 628 519 c 0,0,1
EndSplineSet
EndChar

StartChar: V
Encoding: 86 86 54
Width: 742
GlyphClass: 2
Flags: W
LayerCount: 2
Fore
SplineSet
60 721 m 0,0,1
 60 740 60 740 74 755 c 128,-1,2
 88 770 88 770 101 770 c 0,3,4
 117 770 117 770 134 737.5 c 128,-1,5
 151 705 151 705 159 705 c 0,6,7
 169 705 169 705 169 685 c 0,8,9
 169 672 169 672 208 578 c 128,-1,10
 247 484 247 484 282 382 c 0,11,12
 369 129 369 129 387 129 c 0,13,14
 395 129 395 129 441.5 243.5 c 128,-1,15
 488 358 488 358 509 430 c 0,16,17
 538 534 538 534 585.5 645.5 c 128,-1,18
 633 757 633 757 653 757 c 0,19,20
 659 757 659 757 667 754.5 c 128,-1,21
 675 752 675 752 684 743 c 128,-1,22
 693 734 693 734 693 720 c 0,23,24
 693 699 693 699 675.5 649 c 128,-1,25
 658 599 658 599 625 512.5 c 128,-1,26
 592 426 592 426 571 362 c 0,27,28
 545 287 545 287 478 138 c 0,29,30
 441 58 441 58 422.5 31.5 c 128,-1,31
 404 5 404 5 387 5 c 0,32,33
 354 5 354 5 334.5 35.5 c 128,-1,34
 315 66 315 66 272 183 c 2,35,-1
 167 464 l 2,36,37
 114 601 114 601 114 613 c 0,38,39
 114 621 114 621 87 659 c 128,-1,40
 60 697 60 697 60 721 c 0,0,1
EndSplineSet
EndChar

StartChar: W
Encoding: 87 87 55
Width: 878
GlyphClass: 2
Flags: W
LayerCount: 2
Fore
SplineSet
693 354 m 0,0,1
 693 384 693 384 734 589 c 128,-1,2
 775 794 775 794 784 794 c 0,3,4
 810 794 810 794 821 783.5 c 128,-1,5
 832 773 832 773 832 744 c 0,6,7
 832 711 832 711 808 591 c 2,8,-1
 756 331 l 2,9,10
 742 260 742 260 730.5 209.5 c 128,-1,11
 719 159 719 159 714.5 143.5 c 128,-1,12
 710 128 710 128 708 115 c 128,-1,13
 706 102 706 102 706 85 c 0,14,15
 706 61 706 61 696.5 48 c 128,-1,16
 687 35 687 35 672 35 c 0,17,18
 650 35 650 35 634 57.5 c 128,-1,19
 618 80 618 80 608 102.5 c 128,-1,20
 598 125 598 125 590 125 c 0,21,22
 580 125 580 125 571 167 c 0,23,24
 561 214 561 214 523 291 c 128,-1,25
 485 368 485 368 459 392 c 2,26,-1
 429 421 l 1,27,-1
 399 346 l 2,28,29
 363 252 363 252 334.5 170.5 c 128,-1,30
 306 89 306 89 296 54.5 c 128,-1,31
 286 20 286 20 276 -6 c 128,-1,32
 266 -32 266 -32 259 -37 c 128,-1,33
 252 -42 252 -42 237 -42 c 0,34,35
 219 -42 219 -42 210.5 -30.5 c 128,-1,36
 202 -19 202 -19 194 19 c 0,37,38
 168 135 168 135 142.5 270.5 c 128,-1,39
 117 406 117 406 103 460 c 0,40,41
 89 508 89 508 89 539 c 0,42,43
 89 558 89 558 84.5 567.5 c 128,-1,44
 80 577 80 577 74.5 581.5 c 128,-1,45
 69 586 69 586 64.5 611 c 128,-1,46
 60 636 60 636 60 682 c 0,47,48
 60 724 60 724 77 724 c 0,49,50
 103 724 103 724 130 638 c 128,-1,51
 157 552 157 552 203 322 c 0,52,53
 237 155 237 155 249 155 c 0,54,55
 258 155 258 155 310 307.5 c 128,-1,56
 362 460 362 460 373 480 c 0,57,58
 389 511 389 511 418 511 c 0,59,60
 464 511 464 511 521 439 c 128,-1,61
 578 367 578 367 615 258 c 0,62,63
 636 193 636 193 649 193 c 0,64,65
 660 193 660 193 676.5 254 c 128,-1,66
 693 315 693 315 693 354 c 0,0,1
EndSplineSet
EndChar

StartChar: X
Encoding: 88 88 56
Width: 761
GlyphClass: 2
Flags: W
LayerCount: 2
Fore
SplineSet
41 739 m 0,0,1
 41 746 41 746 47 753 c 128,-1,2
 53 760 53 760 61 760 c 0,3,4
 78 760 78 760 117.5 727.5 c 128,-1,5
 157 695 157 695 242 612 c 0,6,7
 398 461 398 461 400 461 c 0,8,9
 401 461 401 461 445 532 c 0,10,11
 483 594 483 594 541.5 657.5 c 128,-1,12
 600 721 600 721 619 721 c 0,13,14
 645 721 645 721 645 700 c 0,15,16
 645 667 645 667 583 602 c 0,17,18
 555 572 555 572 507 473 c 2,19,-1
 459 374 l 1,20,-1
 503 326 l 2,21,22
 532 294 532 294 592.5 238.5 c 128,-1,23
 653 183 653 183 686.5 145.5 c 128,-1,24
 720 108 720 108 720 86 c 0,25,26
 720 70 720 70 703.5 62 c 128,-1,27
 687 54 687 54 678 54 c 0,28,29
 661 54 661 54 634 77.5 c 128,-1,30
 607 101 607 101 538 172 c 2,31,-1
 418 297 l 1,32,-1
 386 246 l 2,33,34
 359 203 359 203 324 136 c 128,-1,35
 289 69 289 69 283 65 c 1,36,37
 278 60 278 60 264.5 33.5 c 128,-1,38
 251 7 251 7 233 -11.5 c 128,-1,39
 215 -30 215 -30 192 -30 c 0,40,41
 178 -30 178 -30 171 -21.5 c 128,-1,42
 164 -13 164 -13 164 -7 c 0,43,44
 164 21 164 21 254 182.5 c 128,-1,45
 344 344 344 344 344 361 c 0,46,47
 344 383 344 383 296.5 439.5 c 128,-1,48
 249 496 249 496 192.5 552.5 c 128,-1,49
 136 609 136 609 88.5 664 c 128,-1,50
 41 719 41 719 41 739 c 0,0,1
EndSplineSet
EndChar

StartChar: Y
Encoding: 89 89 57
Width: 730
GlyphClass: 2
Flags: W
LayerCount: 2
Fore
SplineSet
614 726 m 0,0,1
 614 784 614 784 635 784 c 0,2,3
 641 784 641 784 667 770 c 0,4,5
 688 757 688 757 688 736 c 0,6,7
 688 673 688 673 626 549.5 c 128,-1,8
 564 426 564 426 523 376 c 0,9,10
 506 355 506 355 496.5 339.5 c 128,-1,11
 487 324 487 324 480.5 308.5 c 128,-1,12
 474 293 474 293 452 238 c 128,-1,13
 430 183 430 183 404 122 c 2,14,-1
 323 -72 l 2,15,16
 309 -104 309 -104 287 -104 c 0,17,18
 274 -104 274 -104 262.5 -92 c 128,-1,19
 251 -80 251 -80 251 -65 c 0,20,21
 251 -24 251 -24 362 210 c 2,22,-1
 421 336 l 1,23,-1
 256 504 l 2,24,25
 142 620 142 620 106.5 661 c 128,-1,26
 71 702 71 702 71 721 c 0,27,28
 71 730 71 730 77 738.5 c 128,-1,29
 83 747 83 747 92 747 c 0,30,31
 108 747 108 747 151 708.5 c 128,-1,32
 194 670 194 670 310 553 c 0,33,34
 435 430 435 430 452 430 c 0,35,36
 466 430 466 430 480.5 446.5 c 128,-1,37
 495 463 495 463 506.5 484.5 c 128,-1,38
 518 506 518 506 546 560 c 128,-1,39
 574 614 574 614 598 657 c 0,40,41
 614 689 614 689 614 726 c 0,0,1
EndSplineSet
EndChar

StartChar: Z
Encoding: 90 90 58
Width: 932
GlyphClass: 2
Flags: W
LayerCount: 2
Fore
SplineSet
41 588 m 0,0,1
 41 608 41 608 121 637.5 c 128,-1,2
 201 667 201 667 321.5 689.5 c 128,-1,3
 442 712 442 712 540 712 c 0,4,5
 611 712 611 712 640 693.5 c 128,-1,6
 669 675 669 675 669 634 c 0,7,8
 669 601 669 601 639 538.5 c 128,-1,9
 609 476 609 476 577 444 c 0,10,11
 501 367 501 367 412 247 c 128,-1,12
 323 127 323 127 323 102 c 0,13,14
 323 87 323 87 355 77.5 c 128,-1,15
 387 68 387 68 433 68 c 0,16,17
 490 68 490 68 556 86 c 128,-1,18
 622 104 622 104 692 107 c 0,19,20
 743 108 743 108 759 111.5 c 128,-1,21
 775 115 775 115 790 122 c 128,-1,22
 805 129 805 129 840 135 c 0,23,24
 861 138 861 138 873 138 c 0,25,26
 902 138 902 138 902 110 c 0,27,28
 902 92 902 92 885.5 80 c 128,-1,29
 869 68 869 68 844 68 c 0,30,31
 821 68 821 68 787 50.5 c 128,-1,32
 753 33 753 33 698 33 c 0,33,34
 644 32 644 32 554 14.5 c 128,-1,35
 464 -3 464 -3 379 -3 c 0,36,37
 288 -3 288 -3 256 8.5 c 128,-1,38
 224 20 224 20 224 43 c 0,39,40
 224 52 224 52 236 73.5 c 128,-1,41
 248 95 248 95 248 105 c 0,42,43
 248 116 248 116 294.5 190.5 c 128,-1,44
 341 265 341 265 351 269 c 0,45,46
 360 274 360 274 360 288 c 0,47,48
 360 298 360 298 406.5 352.5 c 128,-1,49
 453 407 453 407 506 460 c 0,50,51
 532 486 532 486 563.5 542 c 128,-1,52
 595 598 595 598 595 620 c 0,53,54
 595 634 595 634 576.5 637.5 c 128,-1,55
 558 641 558 641 485 641 c 0,56,57
 414 641 414 641 374.5 634.5 c 128,-1,58
 335 628 335 628 290 614.5 c 128,-1,59
 245 601 245 601 196 593 c 0,60,61
 117 578 117 578 111 567 c 0,62,63
 106 559 106 559 91 559 c 0,64,65
 74 559 74 559 57.5 568 c 128,-1,66
 41 577 41 577 41 588 c 0,0,1
EndSplineSet
EndChar

StartChar: bracketleft
Encoding: 91 91 59
Width: 485
GlyphClass: 2
Flags: W
LayerCount: 2
Fore
SplineSet
342 0 m 128,-1,1
 362 0 362 0 371 -4.5 c 128,-1,2
 380 -9 380 -9 380 -25 c 0,3,4
 380 -36 380 -36 374 -44 c 0,5,6
 368 -53 368 -53 323 -59 c 128,-1,7
 278 -65 278 -65 235 -65 c 0,8,9
 191 -65 191 -65 184 -58 c 0,10,11
 168 -45 168 -45 161.5 26 c 128,-1,12
 155 97 155 97 147.5 246 c 128,-1,13
 140 395 140 395 130 503 c 0,14,15
 123 580 123 580 123 603 c 0,16,17
 123 642 123 642 134.5 655.5 c 128,-1,18
 146 669 146 669 180 679 c 0,19,20
 258 702 258 702 291 702 c 0,21,22
 302 702 302 702 317 698 c 0,23,24
 335 694 335 694 335 677 c 0,25,26
 335 661 335 661 324 655 c 128,-1,27
 313 649 313 649 277 644 c 0,28,29
 229 638 229 638 213 628 c 128,-1,30
 197 618 197 618 179 618 c 0,31,32
 169 618 169 618 165 616 c 128,-1,33
 161 614 161 614 165 611 c 0,34,35
 181 599 181 599 207 189 c 0,36,37
 211 125 211 125 213 87 c 128,-1,38
 215 49 215 49 219.5 28.5 c 128,-1,39
 224 8 224 8 232 1.5 c 128,-1,40
 240 -5 240 -5 256 -5 c 0,41,42
 262 -5 262 -5 292 -2.5 c 128,-1,0
 322 0 322 0 342 0 c 128,-1,1
EndSplineSet
EndChar

StartChar: backslash
Encoding: 92 92 60
Width: 693
GlyphClass: 2
Flags: W
LayerCount: 2
Fore
SplineSet
52 656 m 0,0,1
 52 671 52 671 74 671 c 0,2,3
 88 671 88 671 101.5 664 c 128,-1,4
 115 657 115 657 117 646 c 0,5,6
 118 630 118 630 231 495.5 c 128,-1,7
 344 361 344 361 386 289 c 0,8,9
 413 242 413 242 426 229 c 0,10,11
 442 213 442 213 483.5 156 c 128,-1,12
 525 99 525 99 541 71 c 0,13,14
 554 46 554 46 572.5 20 c 128,-1,15
 591 -6 591 -6 591 -13 c 0,16,17
 591 -21 591 -21 581 -29 c 128,-1,18
 571 -37 571 -37 560 -37 c 0,19,20
 531 -37 531 -37 501 19 c 0,21,22
 478 59 478 59 400.5 165.5 c 128,-1,23
 323 272 323 272 317 281 c 0,24,25
 273 349 273 349 190 445 c 128,-1,26
 107 541 107 541 103 554 c 0,27,28
 98 571 98 571 90 571 c 128,-1,29
 82 571 82 571 67 605 c 128,-1,30
 52 639 52 639 52 656 c 0,0,1
EndSplineSet
EndChar

StartChar: bracketright
Encoding: 93 93 61
Width: 538
GlyphClass: 2
Flags: W
LayerCount: 2
Fore
SplineSet
172 609 m 0,0,1
 162 609 162 609 156 615.5 c 128,-1,2
 150 622 150 622 150 626 c 0,3,4
 150 634 150 634 169.5 648.5 c 128,-1,5
 189 663 189 663 205 667 c 0,6,7
 230 672 230 672 274 672 c 0,8,9
 330 672 330 672 339 666 c 0,10,11
 357 654 357 654 370.5 491.5 c 128,-1,12
 384 329 384 329 384 127 c 2,13,-1
 384 -9 l 1,14,-1
 361 -20 l 2,15,16
 330 -32 330 -32 250 -32 c 0,17,18
 176 -32 176 -32 176 -19 c 0,19,20
 176 -11 176 -11 194 -4 c 128,-1,21
 212 3 212 3 266 17 c 2,22,-1
 328 32 l 1,23,-1
 330 143 l 2,24,25
 330 150 330 150 330.5 165.5 c 128,-1,26
 331 181 331 181 331 190 c 0,27,28
 331 299 331 299 322.5 435.5 c 128,-1,29
 314 572 314 572 305 599 c 0,30,31
 295 627 295 627 266 627 c 0,32,33
 248 627 248 627 214 618 c 128,-1,34
 180 609 180 609 172 609 c 0,0,1
EndSplineSet
EndChar

StartChar: asciicircum
Encoding: 94 94 62
Width: 447
GlyphClass: 2
Flags: W
LayerCount: 2
Fore
SplineSet
205 795 m 0,0,1
 222 795 222 795 294 718 c 128,-1,2
 366 641 366 641 366 616 c 128,-1,3
 366 591 366 591 352 591 c 0,4,5
 334 591 334 591 277 654.5 c 128,-1,6
 220 718 220 718 207 718 c 0,7,8
 203 718 203 718 198.5 715 c 128,-1,9
 194 712 194 712 189 706 c 128,-1,10
 184 700 184 700 178 691.5 c 128,-1,11
 172 683 172 683 165 671 c 128,-1,12
 158 659 158 659 149 644 c 0,13,14
 125 603 125 603 114 591 c 128,-1,15
 103 579 103 579 89 579 c 0,16,17
 70 579 70 579 70 587 c 0,18,19
 70 594 70 594 78 614 c 128,-1,20
 86 634 86 634 91 640 c 0,21,22
 94 643 94 643 143 719 c 128,-1,23
 192 795 192 795 205 795 c 0,0,1
EndSplineSet
EndChar

StartChar: underscore
Encoding: 95 95 63
Width: 598
GlyphClass: 2
Flags: W
LayerCount: 2
Fore
SplineSet
446 54 m 0,0,1
 493 54 493 54 513 51.5 c 128,-1,2
 533 49 533 49 536 46 c 128,-1,3
 539 43 539 43 539 34 c 0,4,5
 539 24 539 24 537 21 c 128,-1,6
 535 18 535 18 519 15.5 c 128,-1,7
 503 13 503 13 481.5 12.5 c 128,-1,8
 460 12 460 12 405.5 7.5 c 128,-1,9
 351 3 351 3 287 -4 c 0,10,11
 138 -22 138 -22 93 -22 c 0,12,13
 61 -22 61 -22 53 -14 c 0,14,15
 43 -4 43 -4 43 3 c 0,16,17
 43 13 43 13 68 14 c 0,18,19
 88 14 88 14 242 30 c 128,-1,20
 396 46 396 46 401 51 c 1,21,22
 402 54 402 54 446 54 c 0,0,1
EndSplineSet
EndChar

StartChar: grave
Encoding: 96 96 64
Width: 420
GlyphClass: 2
Flags: W
LayerCount: 2
Fore
SplineSet
112 673 m 0,0,1
 112 680 112 680 121.5 688.5 c 128,-1,2
 131 697 131 697 137 697 c 0,3,4
 144 697 144 697 201.5 639.5 c 128,-1,5
 259 582 259 582 259 565 c 0,6,7
 259 545 259 545 245 545 c 0,8,9
 226 545 226 545 169 603 c 128,-1,10
 112 661 112 661 112 673 c 0,0,1
EndSplineSet
EndChar

StartChar: a
Encoding: 97 97 65
Width: 556
GlyphClass: 2
Flags: W
LayerCount: 2
Fore
SplineSet
362 498 m 0,0,1
 316 498 316 498 264.5 479 c 128,-1,2
 213 460 213 460 173 440.5 c 128,-1,3
 133 421 133 421 115 421 c 0,4,5
 103 421 103 421 103 431 c 0,6,7
 103 445 103 445 109 455 c 128,-1,8
 115 465 115 465 131 474 c 128,-1,9
 147 483 147 483 161.5 489 c 128,-1,10
 176 495 176 495 208 506.5 c 128,-1,11
 240 518 240 518 263 528 c 0,12,13
 317 549 317 549 354 549 c 0,14,15
 420 549 420 549 457 477 c 0,16,17
 475 442 475 442 478 412.5 c 128,-1,18
 481 383 481 383 483 247 c 0,19,20
 484 171 484 171 486 119.5 c 128,-1,21
 488 68 488 68 490 54 c 2,22,-1
 492 41 l 1,23,24
 492 27 492 27 479.5 11 c 128,-1,25
 467 -5 467 -5 461 -5 c 0,26,27
 441 -5 441 -5 430 58.5 c 128,-1,28
 419 122 419 122 418 122 c 0,29,30
 415 122 415 122 409 111 c 0,31,32
 389 78 389 78 328.5 38.5 c 128,-1,33
 268 -1 268 -1 227 -1 c 0,34,35
 202 -1 202 -1 168.5 8.5 c 128,-1,36
 135 18 135 18 120 29 c 0,37,38
 109 38 109 38 101.5 65 c 128,-1,39
 94 92 94 92 94 120 c 0,40,41
 94 162 94 162 116.5 192.5 c 128,-1,42
 139 223 139 223 197 255 c 0,43,44
 260 292 260 292 319 292 c 0,45,46
 343 292 343 292 359 284 c 128,-1,47
 375 276 375 276 383 267.5 c 128,-1,48
 391 259 391 259 396 259 c 0,49,50
 400 259 400 259 415 248.5 c 128,-1,51
 430 238 430 238 431 238 c 0,52,53
 435 238 435 238 435 260 c 0,54,55
 435 394 435 394 416.5 446 c 128,-1,56
 398 498 398 498 362 498 c 0,0,1
407 188 m 0,57,58
 407 193 407 193 402 200.5 c 128,-1,59
 397 208 397 208 386.5 217.5 c 128,-1,60
 376 227 376 227 353 233.5 c 128,-1,61
 330 240 330 240 299 240 c 0,62,63
 256 240 256 240 223.5 225 c 128,-1,64
 191 210 191 210 175 187 c 128,-1,65
 159 164 159 164 151.5 144.5 c 128,-1,66
 144 125 144 125 144 110 c 0,67,68
 144 85 144 85 148.5 76 c 128,-1,69
 153 67 153 67 171 57 c 0,70,71
 193 46 193 46 211 46 c 0,72,73
 245 46 245 46 295.5 70.5 c 128,-1,74
 346 95 346 95 346 106 c 0,75,76
 346 114 346 114 376.5 144.5 c 128,-1,77
 407 175 407 175 407 188 c 0,57,58
EndSplineSet
EndChar

StartChar: b
Encoding: 98 98 66
Width: 655
GlyphClass: 2
Flags: W
LayerCount: 2
Fore
SplineSet
474 542 m 0,0,1
 488 542 488 542 506.5 533.5 c 128,-1,2
 525 525 525 525 546 507.5 c 128,-1,3
 567 490 567 490 581 454.5 c 128,-1,4
 595 419 595 419 595 372 c 0,5,6
 595 302 595 302 563.5 226.5 c 128,-1,7
 532 151 532 151 476 95 c 0,8,9
 434 53 434 53 365.5 15 c 128,-1,10
 297 -23 297 -23 264 -23 c 128,-1,11
 231 -23 231 -23 190 0 c 128,-1,12
 149 23 149 23 144 43 c 0,13,14
 141 54 141 54 133 245.5 c 128,-1,15
 125 437 125 437 112 517 c 0,16,17
 85 687 85 687 85 789 c 0,18,19
 85 826 85 826 99 840 c 0,20,21
 114 855 114 855 123 855 c 0,22,23
 138 855 138 855 143.5 818 c 128,-1,24
 149 781 149 781 155 696 c 128,-1,25
 161 611 161 611 171 547 c 0,26,27
 184 463 184 463 189 409 c 2,28,-1
 194 354 l 1,29,-1
 272 431 l 2,30,31
 350 509 350 509 403 526 c 0,32,33
 454 542 454 542 474 542 c 0,0,1
537 367 m 0,34,35
 537 478 537 478 471 478 c 0,36,37
 454 478 454 478 422 472 c 0,38,39
 401 468 401 468 352 424.5 c 128,-1,40
 303 381 303 381 263 331 c 0,41,42
 238 299 238 299 223.5 246 c 128,-1,43
 209 193 209 193 209 142 c 0,44,45
 209 85 209 85 226 58.5 c 128,-1,46
 243 32 243 32 264 32 c 0,47,48
 275 32 275 32 314 44 c 0,49,50
 358 58 358 58 406.5 100 c 128,-1,51
 455 142 455 142 491 197 c 0,52,53
 537 268 537 268 537 367 c 0,34,35
EndSplineSet
EndChar

StartChar: c
Encoding: 99 99 67
Width: 569
GlyphClass: 2
Flags: W
LayerCount: 2
Fore
SplineSet
505 402 m 0,0,1
 505 385 505 385 497.5 374 c 128,-1,2
 490 363 490 363 480 363 c 0,3,4
 461 363 461 363 456 392 c 0,5,6
 454 415 454 415 423 450 c 0,7,8
 410 464 410 464 402 470 c 128,-1,9
 394 476 394 476 364.5 483 c 128,-1,10
 335 490 335 490 287 490 c 0,11,12
 248 490 248 490 227.5 476 c 128,-1,13
 207 462 207 462 177 419 c 0,14,15
 105 317 105 317 105 235 c 0,16,17
 105 193 105 193 114 164.5 c 128,-1,18
 123 136 123 136 131.5 126.5 c 128,-1,19
 140 117 140 117 160 97 c 0,20,21
 189 69 189 69 204.5 61.5 c 128,-1,22
 220 54 220 54 248 54 c 0,23,24
 335 54 335 54 438 172 c 0,25,26
 492 232 492 232 516 232 c 0,27,28
 529 232 529 232 529 213 c 0,29,30
 529 195 529 195 481.5 136 c 128,-1,31
 434 77 434 77 400 53 c 0,32,33
 321 -4 321 -4 259 -4 c 0,34,35
 214 -4 214 -4 160 23 c 0,36,37
 105 50 105 50 80.5 96 c 128,-1,38
 56 142 56 142 51 230 c 0,39,40
 48 264 48 264 48 284 c 0,41,42
 48 323 48 323 75 373 c 0,43,44
 103 427 103 427 156.5 477 c 128,-1,45
 210 527 210 527 249 538 c 0,46,47
 279 545 279 545 314 545 c 0,48,49
 390 545 390 545 447.5 496.5 c 128,-1,50
 505 448 505 448 505 402 c 0,0,1
EndSplineSet
EndChar

StartChar: d
Encoding: 100 100 68
Width: 715
GlyphClass: 2
Flags: W
LayerCount: 2
Fore
SplineSet
641 -10 m 0,0,1
 641 -32 641 -32 632.5 -44.5 c 128,-1,2
 624 -57 624 -57 617.5 -59.5 c 128,-1,3
 611 -62 611 -62 606 -62 c 0,4,5
 593 -62 593 -62 584 -53.5 c 128,-1,6
 575 -45 575 -45 570 -23.5 c 128,-1,7
 565 -2 565 -2 563.5 9 c 128,-1,8
 562 20 562 20 559 50 c 0,9,10
 552 151 552 151 543 151 c 0,11,12
 532 151 532 151 508 122 c 0,13,14
 396 -10 396 -10 272 -10 c 0,15,16
 235 -10 235 -10 198 4 c 0,17,18
 70 52 70 52 70 200 c 0,19,20
 70 264 70 264 91.5 322.5 c 128,-1,21
 113 381 113 381 146.5 421 c 128,-1,22
 180 461 180 461 214 488 c 128,-1,23
 248 515 248 515 279 526 c 0,24,25
 318 541 318 541 333 541 c 0,26,27
 359 541 359 541 420.5 507 c 128,-1,28
 482 473 482 473 506 441 c 0,29,30
 533 405 533 405 547 405 c 0,31,32
 548 405 548 405 548 405.5 c 128,-1,33
 548 406 548 406 549 406 c 1,34,35
 560 413 560 413 560 667 c 0,36,37
 560 918 560 918 572 952 c 0,38,39
 585 983 585 983 611 983 c 2,40,-1
 638 983 l 1,41,-1
 630 572 l 2,42,43
 627 419 627 419 627 299 c 0,44,45
 627 136 627 136 634 66 c 128,-1,46
 641 -4 641 -4 641 -10 c 0,0,1
407 433 m 0,47,48
 348 472 348 472 325 472 c 0,49,50
 305 472 305 472 235 404 c 128,-1,51
 165 336 165 336 152 304 c 0,52,53
 142 280 142 280 142 217 c 0,54,55
 142 140 142 140 155 117 c 0,56,57
 165 99 165 99 203.5 78 c 128,-1,58
 242 57 242 57 280 57 c 0,59,60
 348 57 348 57 452 157 c 0,61,62
 534 236 534 236 534 260 c 0,63,64
 534 293 534 293 492.5 348 c 128,-1,65
 451 403 451 403 407 433 c 0,47,48
EndSplineSet
EndChar

StartChar: e
Encoding: 101 101 69
Width: 617
GlyphClass: 2
Flags: W
LayerCount: 2
Fore
SplineSet
568 215 m 0,0,1
 573 215 573 215 573 207 c 0,2,3
 573 189 573 189 546.5 149 c 128,-1,4
 520 109 520 109 490 83 c 0,5,6
 385 -10 385 -10 280 -10 c 0,7,8
 240 -10 240 -10 200.5 8.5 c 128,-1,9
 161 27 161 27 127 61 c 128,-1,10
 93 95 93 95 72 152 c 128,-1,11
 51 209 51 209 51 279 c 0,12,13
 51 322 51 322 61 352 c 0,14,15
 81 413 81 413 146.5 481 c 128,-1,16
 212 549 212 549 270 549 c 0,17,18
 286 549 286 549 318 546 c 0,19,20
 366 542 366 542 385.5 536 c 128,-1,21
 405 530 405 530 430 511 c 0,22,23
 462 487 462 487 485.5 449.5 c 128,-1,24
 509 412 509 412 509 387 c 0,25,26
 509 355 509 355 484 338.5 c 128,-1,27
 459 322 459 322 387 306 c 0,28,29
 294 285 294 285 203 280 c 2,30,-1
 110 275 l 1,31,-1
 110 235 l 2,32,33
 110 161 110 161 179 95 c 0,34,35
 231 45 231 45 287 45 c 0,36,37
 330 45 330 45 378.5 71.5 c 128,-1,38
 427 98 427 98 461 130 c 128,-1,39
 495 162 495 162 526 188.5 c 128,-1,40
 557 215 557 215 568 215 c 0,0,1
407 459 m 0,41,42
 376 487 376 487 360.5 494.5 c 128,-1,43
 345 502 345 502 320 502 c 0,44,45
 270 502 270 502 245.5 492.5 c 128,-1,46
 221 483 221 483 196 454 c 0,47,48
 120 367 120 367 120 338 c 0,49,50
 120 325 120 325 144 325 c 0,51,52
 235 325 235 325 402 363 c 0,53,54
 452 375 452 375 452 405 c 0,55,56
 452 419 452 419 407 459 c 0,41,42
EndSplineSet
EndChar

StartChar: f
Encoding: 102 102 70
Width: 624
GlyphClass: 2
Flags: W
LayerCount: 2
Fore
SplineSet
223 450 m 0,0,1
 211 450 211 450 172.5 439.5 c 128,-1,2
 134 429 134 429 111 429 c 0,3,4
 67 429 67 429 67 457 c 0,5,6
 67 468 67 468 83.5 477 c 128,-1,7
 100 486 100 486 148 500 c 2,8,-1
 229 524 l 1,9,-1
 231 611 l 2,10,11
 233 704 233 704 245 816 c 0,12,13
 254 899 254 899 261 921 c 128,-1,14
 268 943 268 943 292 967 c 0,15,16
 312 987 312 987 324.5 993 c 128,-1,17
 337 999 337 999 360 999 c 0,18,19
 377 999 377 999 432 994 c 0,20,21
 474 990 474 990 492 982.5 c 128,-1,22
 510 975 510 975 533 952 c 0,23,24
 567 918 567 918 567 890 c 0,25,26
 567 870 567 870 551.5 848.5 c 128,-1,27
 536 827 536 827 528 827 c 0,28,29
 516 827 516 827 516 861 c 0,30,31
 516 893 516 893 498.5 910.5 c 128,-1,32
 481 928 481 928 431 944 c 0,33,34
 398 954 398 954 380 954 c 0,35,36
 337 954 337 954 313 904 c 0,37,38
 304 884 304 884 296.5 789.5 c 128,-1,39
 289 695 289 695 289 616 c 0,40,41
 289 559 289 559 293.5 544.5 c 128,-1,42
 298 530 298 530 318 530 c 0,43,44
 330 530 330 530 368 537 c 128,-1,45
 406 544 406 544 431 544 c 0,46,47
 445 544 445 544 454 539.5 c 128,-1,48
 463 535 463 535 463 529 c 0,49,50
 463 512 463 512 377 486 c 2,51,-1
 291 461 l 1,52,-1
 288 302 l 2,53,54
 288 290 288 290 287.5 269.5 c 128,-1,55
 287 249 287 249 287 241 c 0,56,57
 287 166 287 166 294 125 c 128,-1,58
 301 84 301 84 308 66 c 128,-1,59
 315 48 315 48 315 27 c 0,60,61
 315 -3 315 -3 287 -3 c 0,62,63
 234 -3 234 -3 234 276 c 0,64,65
 234 443 234 443 228 449 c 0,66,67
 227 450 227 450 223 450 c 0,0,1
EndSplineSet
EndChar

StartChar: g
Encoding: 103 103 71
Width: 704
GlyphClass: 2
Flags: W
LayerCount: 2
Fore
SplineSet
512 -189 m 0,0,1
 532 -189 532 -189 544 -181.5 c 128,-1,2
 556 -174 556 -174 558 -165 c 128,-1,3
 560 -156 560 -156 561.5 -148 c 128,-1,4
 563 -140 563 -140 561 -138 c 1,5,6
 561 -42 561 -42 548 44 c 2,7,-1
 534 131 l 2,8,9
 527 233 527 233 520 233 c 0,10,11
 516 233 516 233 505 215 c 0,12,13
 480 178 480 178 424 132 c 128,-1,14
 368 86 368 86 331 72 c 0,15,16
 288 55 288 55 236 55 c 0,17,18
 204 55 204 55 185.5 63 c 128,-1,19
 167 71 167 71 137 97 c 0,20,21
 108 123 108 123 96 143 c 128,-1,22
 84 163 84 163 77 200 c 128,-1,23
 70 237 70 237 70 263 c 0,24,25
 70 282 70 282 73 291 c 0,26,27
 80 318 80 318 110 375 c 128,-1,28
 140 432 140 432 165 464 c 0,29,30
 186 492 186 492 243.5 529.5 c 128,-1,31
 301 567 301 567 345 581 c 0,32,33
 392 596 392 596 450 596 c 0,34,35
 524 596 524 596 573 570.5 c 128,-1,36
 622 545 622 545 622 492 c 0,37,38
 622 462 622 462 607.5 418 c 128,-1,39
 593 374 593 374 593 341 c 0,40,41
 593 305 593 305 616 10 c 2,42,-1
 631 -197 l 1,43,-1
 596 -225 l 2,44,45
 568 -248 568 -248 539 -248 c 0,46,47
 486 -248 486 -248 410 -221.5 c 128,-1,48
 334 -195 334 -195 279 -160.5 c 128,-1,49
 224 -126 224 -126 224 -104 c 0,50,51
 224 -78 224 -78 251.5 -40 c 128,-1,52
 279 -2 279 -2 298 -2 c 0,53,54
 320 -2 320 -2 320 -17 c 0,55,56
 320 -26 320 -26 311 -44 c 128,-1,57
 302 -62 302 -62 302 -79 c 0,58,59
 302 -107 302 -107 339 -128 c 128,-1,60
 376 -149 376 -149 402 -149 c 0,61,62
 417 -149 417 -149 451.5 -169 c 128,-1,63
 486 -189 486 -189 512 -189 c 0,0,1
132 265 m 0,64,65
 132 207 132 207 162 159 c 128,-1,66
 192 111 192 111 237 111 c 0,67,68
 298 111 298 111 368.5 166.5 c 128,-1,69
 439 222 439 222 483 305 c 0,70,71
 507 352 507 352 524.5 412.5 c 128,-1,72
 542 473 542 473 542 508 c 0,73,74
 542 528 542 528 535 532 c 0,75,76
 512 544 512 544 462 544 c 0,77,78
 416 544 416 544 383 534 c 0,79,80
 296 509 296 509 214 417 c 128,-1,81
 132 325 132 325 132 265 c 0,64,65
EndSplineSet
EndChar

StartChar: h
Encoding: 104 104 72
Width: 538
GlyphClass: 2
Flags: W
LayerCount: 2
Fore
SplineSet
95 86 m 0,0,1
 95 166 95 166 75.5 408.5 c 128,-1,2
 56 651 56 651 56 743 c 0,3,4
 56 796 56 796 62 807 c 0,5,6
 74 828 74 828 85 828 c 0,7,8
 92 828 92 828 96.5 824.5 c 128,-1,9
 101 821 101 821 105 806.5 c 128,-1,10
 109 792 109 792 111 777 c 128,-1,11
 113 762 113 762 116 725 c 128,-1,12
 119 688 119 688 121.5 654 c 128,-1,13
 124 620 124 620 128.5 553 c 128,-1,14
 133 486 133 486 138 425 c 2,15,-1
 147 307 l 1,16,-1
 165 346 l 2,17,18
 185 391 185 391 263 464 c 128,-1,19
 341 537 341 537 368 537 c 0,20,21
 393 537 393 537 423 509 c 128,-1,22
 453 481 453 481 462 449 c 0,23,24
 470 422 470 422 470 206 c 0,25,26
 470 151 470 151 470 128.5 c 128,-1,27
 470 106 470 106 469.5 75 c 128,-1,28
 469 44 469 44 468 35 c 128,-1,29
 467 26 467 26 466 13 c 128,-1,30
 465 0 465 0 462 -1.5 c 128,-1,31
 459 -3 459 -3 456 -5 c 128,-1,32
 453 -7 453 -7 448 -7 c 0,33,34
 439 -7 439 -7 435 -3.5 c 128,-1,35
 431 0 431 0 428 22.5 c 128,-1,36
 425 45 425 45 423 79 c 128,-1,37
 421 113 421 113 419 189 c 0,38,39
 413 382 413 382 395 436 c 2,40,-1
 379 486 l 1,41,-1
 321 432 l 2,42,43
 275 388 275 388 236.5 332 c 128,-1,44
 198 276 198 276 184 233 c 0,45,46
 175 202 175 202 169 134 c 128,-1,47
 163 66 163 66 154.5 22 c 128,-1,48
 146 -22 146 -22 130 -22 c 0,49,50
 123 -22 123 -22 113 -14 c 0,51,52
 95 1 95 1 95 86 c 0,0,1
EndSplineSet
EndChar

StartChar: i
Encoding: 105 105 73
Width: 277
GlyphClass: 2
Flags: W
LayerCount: 2
Fore
SplineSet
114 570 m 0,0,1
 128 582 128 582 138 582 c 0,2,3
 159 582 159 582 168.5 515.5 c 128,-1,4
 178 449 178 449 186 260 c 0,5,6
 190 172 190 172 190 101 c 128,-1,7
 190 30 190 30 184 23 c 0,8,9
 172 8 172 8 154 8 c 0,10,11
 129 8 129 8 123 29 c 0,12,13
 118 42 118 42 108 231.5 c 128,-1,14
 98 421 98 421 98 495 c 0,15,16
 98 557 98 557 114 570 c 0,0,1
108 805 m 0,17,18
 108 819 108 819 119.5 833 c 128,-1,19
 131 847 131 847 140 847 c 0,20,21
 150 847 150 847 167.5 833.5 c 128,-1,22
 185 820 185 820 185 799 c 0,23,24
 185 784 185 784 176.5 773.5 c 128,-1,25
 168 763 168 763 154 763 c 0,26,27
 138 763 138 763 123 775 c 128,-1,28
 108 787 108 787 108 805 c 0,17,18
EndSplineSet
EndChar

StartChar: j
Encoding: 106 106 74
Width: 466
GlyphClass: 2
Flags: W
LayerCount: 2
Fore
SplineSet
293 259 m 0,0,1
 253 426 253 426 253 540 c 0,2,3
 253 556 253 556 257 560 c 128,-1,4
 261 564 261 564 272 564 c 2,5,-1
 274 564 l 2,6,7
 291 564 291 564 296.5 549.5 c 128,-1,8
 302 535 302 535 318 452 c 0,9,10
 363 219 363 219 363 69 c 0,11,12
 363 45 363 45 361 -9 c 0,13,14
 358 -78 358 -78 354 -115.5 c 128,-1,15
 350 -153 350 -153 342 -182 c 128,-1,16
 334 -211 334 -211 316.5 -222 c 128,-1,17
 299 -233 299 -233 276 -238 c 128,-1,18
 253 -243 253 -243 212 -243 c 0,19,20
 163 -243 163 -243 131 -233 c 128,-1,21
 99 -223 99 -223 99 -208 c 0,22,23
 99 -197 99 -197 84 -191 c 0,24,25
 69 -187 69 -187 69 -130 c 0,26,27
 69 -90 69 -90 79 -65.5 c 128,-1,28
 89 -41 89 -41 101 -41 c 0,29,30
 124 -41 124 -41 125 -105 c 0,31,32
 125 -150 125 -150 133 -162 c 0,33,34
 138 -169 138 -169 172.5 -175 c 128,-1,35
 207 -181 207 -181 240 -181 c 0,36,37
 270 -181 270 -181 278 -175 c 0,38,39
 305 -156 305 -156 305 43 c 0,40,41
 305 211 305 211 293 259 c 0,0,1
218 789 m 128,-1,43
 218 804 218 804 230.5 815 c 128,-1,44
 243 826 243 826 252 826 c 0,45,46
 260 826 260 826 270.5 816.5 c 128,-1,47
 281 807 281 807 281 786 c 0,48,49
 281 771 281 771 275.5 759.5 c 128,-1,50
 270 748 270 748 261 748 c 0,51,52
 243 749 243 749 230.5 761.5 c 128,-1,42
 218 774 218 774 218 789 c 128,-1,43
EndSplineSet
EndChar

StartChar: k
Encoding: 107 107 75
Width: 519
GlyphClass: 2
Flags: W
LayerCount: 2
Fore
SplineSet
51 745 m 0,0,1
 52 753 52 753 51 763.5 c 128,-1,2
 50 774 50 774 56 783.5 c 128,-1,3
 62 793 62 793 74 793 c 0,4,5
 93 793 93 793 102 770 c 0,6,7
 109 752 109 752 124.5 592.5 c 128,-1,8
 140 433 140 433 146 394 c 2,9,-1
 154 336 l 1,10,-1
 268 450 l 2,11,12
 329 511 329 511 354 532.5 c 128,-1,13
 379 554 379 554 391 554 c 0,14,15
 398 554 398 554 406.5 544 c 128,-1,16
 415 534 415 534 415 524 c 0,17,18
 415 517 415 517 411.5 512.5 c 128,-1,19
 408 508 408 508 402.5 504.5 c 128,-1,20
 397 501 397 501 385 488 c 128,-1,21
 373 475 373 475 359 456 c 0,22,23
 318 394 318 394 201 300 c 0,24,25
 161 269 161 269 161 248 c 0,26,27
 161 234 161 234 179 225 c 2,28,-1
 286 175 l 2,29,30
 360 140 360 140 409 105 c 128,-1,31
 458 70 458 70 458 51 c 0,32,33
 458 30 458 30 438 30 c 0,34,35
 420 30 420 30 385 54.5 c 128,-1,36
 350 79 350 79 341 79 c 0,37,38
 329 79 329 79 329 87 c 0,39,40
 329 98 329 98 207 143 c 2,41,-1
 154 163 l 1,42,-1
 161 80 l 2,43,44
 164 47 164 47 164 28 c 0,45,46
 164 -14 164 -14 143 -14 c 0,47,48
 133 -14 133 -14 126.5 -10.5 c 128,-1,49
 120 -7 120 -7 114.5 -1.5 c 128,-1,50
 109 4 109 4 105.5 20 c 128,-1,51
 102 36 102 36 99 51.5 c 128,-1,52
 96 67 96 67 94 102 c 128,-1,53
 92 137 92 137 90.5 168 c 128,-1,54
 89 199 89 199 87 257 c 0,55,56
 81 418 81 418 72 467 c 0,57,58
 64 512 64 512 57.5 601.5 c 128,-1,59
 51 691 51 691 51 745 c 0,0,1
EndSplineSet
EndChar

StartChar: l
Encoding: 108 108 76
Width: 299
GlyphClass: 2
Flags: W
LayerCount: 2
Fore
SplineSet
97 799 m 0,0,1
 97 910 97 910 104.5 944.5 c 128,-1,2
 112 979 112 979 128 979 c 0,3,4
 138 979 138 979 144 970 c 0,5,6
 150 960 150 960 180.5 507 c 128,-1,7
 211 54 211 54 211 36 c 0,8,9
 211 23 211 23 205 18.5 c 128,-1,10
 199 14 199 14 185 14 c 0,11,12
 174 14 174 14 168.5 17 c 128,-1,13
 163 20 163 20 157.5 38 c 128,-1,14
 152 56 152 56 149.5 77 c 128,-1,15
 147 98 147 98 142 153 c 128,-1,16
 137 208 137 208 133.5 265.5 c 128,-1,17
 130 323 130 323 121.5 434 c 128,-1,18
 113 545 113 545 103 658 c 0,19,20
 97 722 97 722 97 799 c 0,0,1
EndSplineSet
EndChar

StartChar: m
Encoding: 109 109 77
Width: 844
GlyphClass: 2
Flags: W
LayerCount: 2
Fore
SplineSet
144 503 m 0,0,1
 144 561 144 561 160 561 c 0,2,3
 173 561 173 561 188.5 470 c 128,-1,4
 204 379 204 379 210 379 c 0,5,6
 213 379 213 379 223 406.5 c 128,-1,7
 233 434 233 434 238 439 c 0,8,9
 248 452 248 452 265 488 c 0,10,11
 286 531 286 531 297 540.5 c 128,-1,12
 308 550 308 550 336 550 c 0,13,14
 367 550 367 550 404 507 c 0,15,16
 428 479 428 479 436.5 455.5 c 128,-1,17
 445 432 445 432 455 371 c 2,18,-1
 471 277 l 1,19,-1
 488 337 l 2,20,21
 513 424 513 424 560 487 c 128,-1,22
 607 550 607 550 647 550 c 0,23,24
 672 550 672 550 693 521.5 c 128,-1,25
 714 493 714 493 723 449 c 0,26,27
 732 408 732 408 732 268 c 0,28,29
 732 130 732 130 729.5 70 c 128,-1,30
 727 10 727 10 723 0 c 128,-1,31
 719 -10 719 -10 709 -12 c 0,32,33
 706 -13 706 -13 702 -13 c 0,34,35
 693 -13 693 -13 691 15 c 128,-1,36
 689 43 689 43 688 172 c 0,37,38
 688 487 688 487 640 487 c 0,39,40
 614 487 614 487 572 401 c 0,41,42
 537 330 537 330 513 228 c 128,-1,43
 489 126 489 126 484 22 c 0,44,45
 483 -3 483 -3 478.5 -12 c 128,-1,46
 474 -21 474 -21 464 -21 c 0,47,48
 452 -21 452 -21 448.5 -0.5 c 128,-1,49
 445 20 445 20 441 108 c 0,50,51
 434 270 434 270 421 335.5 c 128,-1,52
 408 401 408 401 373 454 c 0,53,54
 347 491 347 491 335 491 c 0,55,56
 321 491 321 491 304 456.5 c 128,-1,57
 287 422 287 422 248 325 c 0,58,59
 230 278 230 278 230 239 c 0,60,61
 230 216 230 216 221.5 188.5 c 128,-1,62
 213 161 213 161 210 53 c 0,63,64
 209 18 209 18 208.5 -6 c 128,-1,65
 208 -30 208 -30 206 -45 c 128,-1,66
 204 -60 204 -60 199.5 -67 c 128,-1,67
 195 -74 195 -74 186 -74 c 0,68,69
 170 -74 170 -74 164.5 -26 c 128,-1,70
 159 22 159 22 159 166 c 0,71,72
 159 282 159 282 151.5 379 c 128,-1,73
 144 476 144 476 144 503 c 0,0,1
EndSplineSet
EndChar

StartChar: n
Encoding: 110 110 78
Width: 619
GlyphClass: 2
Flags: W
LayerCount: 2
Fore
SplineSet
126 541 m 0,0,1
 126 575 126 575 146 575 c 0,2,3
 150 575 150 575 152 574.5 c 128,-1,4
 154 574 154 574 157 569.5 c 128,-1,5
 160 565 160 565 161.5 561 c 128,-1,6
 163 557 163 557 165.5 543.5 c 128,-1,7
 168 530 168 530 169.5 519.5 c 128,-1,8
 171 509 171 509 174 483 c 128,-1,9
 177 457 177 457 179.5 435 c 128,-1,10
 182 413 182 413 187 371 c 0,11,12
 207 209 207 209 208 207 c 1,13,14
 209 206 209 206 216.5 226.5 c 128,-1,15
 224 247 224 247 237 288 c 0,16,17
 257 354 257 354 271 383.5 c 128,-1,18
 285 413 285 413 321 465 c 0,19,20
 394 566 394 566 434 566 c 0,21,22
 460 566 460 566 483 531 c 0,23,24
 514 485 514 485 521 440 c 128,-1,25
 528 395 528 395 531 227 c 0,26,27
 533 119 533 119 533 99 c 0,28,29
 533 49 533 49 529.5 26.5 c 128,-1,30
 526 4 526 4 519.5 -1.5 c 128,-1,31
 513 -7 513 -7 497 -8 c 0,32,33
 488 -8 488 -8 485 -0.5 c 128,-1,34
 482 7 482 7 482 34 c 0,35,36
 482 49 482 49 484 98.5 c 128,-1,37
 486 148 486 148 486 182 c 0,38,39
 486 267 486 267 479.5 348.5 c 128,-1,40
 473 430 473 430 464 453 c 0,41,42
 459 466 459 466 448 480 c 128,-1,43
 437 494 437 494 427 494 c 0,44,45
 406 494 406 494 360 422.5 c 128,-1,46
 314 351 314 351 281 272 c 0,47,48
 250 200 250 200 239.5 161.5 c 128,-1,49
 229 123 229 123 222 57 c 0,50,51
 211 -45 211 -45 206 -45 c 0,52,53
 198 -45 198 -45 183 -28 c 0,54,55
 172 -17 172 -17 168 19.5 c 128,-1,56
 164 56 164 56 157 164.5 c 128,-1,57
 150 273 150 273 138 384 c 0,58,59
 126 499 126 499 126 541 c 0,0,1
EndSplineSet
EndChar

StartChar: o
Encoding: 111 111 79
Width: 651
GlyphClass: 2
Flags: W
LayerCount: 2
Fore
SplineSet
153 449 m 0,0,1
 231 522 231 522 284.5 545.5 c 128,-1,2
 338 569 338 569 420 569 c 0,3,4
 544 569 544 569 575 495 c 0,5,6
 594 451 594 451 594 387 c 0,7,8
 594 281 594 281 547 172.5 c 128,-1,9
 500 64 500 64 431 22 c 0,10,11
 364 -19 364 -19 290 -19 c 0,12,13
 187 -19 187 -19 125 52 c 0,14,15
 82 102 82 102 69 136.5 c 128,-1,16
 56 171 56 171 56 235 c 0,17,18
 56 356 56 356 153 449 c 0,0,1
314 38 m 0,19,20
 398 38 398 38 466.5 153.5 c 128,-1,21
 535 269 535 269 535 415 c 0,22,23
 535 437 535 437 530 448 c 128,-1,24
 525 459 525 459 512 470 c 0,25,26
 475 501 475 501 433 501 c 0,27,28
 426 501 426 501 402.5 497 c 128,-1,29
 379 493 379 493 345 490 c 0,30,31
 310 485 310 485 289.5 474.5 c 128,-1,32
 269 464 269 464 238 435 c 0,33,34
 179 379 179 379 154 331.5 c 128,-1,35
 129 284 129 284 129 228 c 0,36,37
 129 145 129 145 180.5 92 c 128,-1,38
 232 39 232 39 314 38 c 0,19,20
EndSplineSet
EndChar

StartChar: p
Encoding: 112 112 80
Width: 655
GlyphClass: 2
Flags: W
LayerCount: 2
Fore
SplineSet
116 512 m 128,-1,1
 116 530 116 530 127.5 555.5 c 128,-1,2
 139 581 139 581 161 581 c 0,3,4
 175 581 175 581 185.5 565.5 c 128,-1,5
 196 550 196 550 208 550 c 0,6,7
 217 550 217 550 282 565.5 c 128,-1,8
 347 581 347 581 396 581 c 0,9,10
 437 581 437 581 487 570 c 0,11,12
 591 546 591 546 591 441 c 0,13,14
 591 361 591 361 529 228 c 0,15,16
 488 140 488 140 429 92.5 c 128,-1,17
 370 45 370 45 303 45 c 0,18,19
 284 45 284 45 274 47 c 2,20,-1
 228 54 l 1,21,-1
 239 0 l 2,22,23
 275 -170 275 -170 275 -213 c 0,24,25
 275 -233 275 -233 268 -239.5 c 128,-1,26
 261 -246 261 -246 244 -246 c 0,27,28
 226 -246 226 -246 218.5 -237.5 c 128,-1,29
 211 -229 211 -229 203 -202 c 0,30,31
 164 -62 164 -62 140 216 c 0,32,33
 132 313 132 313 127 350.5 c 128,-1,34
 122 388 122 388 115 401 c 128,-1,35
 108 414 108 414 92 414 c 0,36,37
 60 414 60 414 60 433 c 0,38,39
 60 444 60 444 88 469 c 128,-1,0
 116 494 116 494 116 512 c 128,-1,1
237 137 m 0,40,41
 252 137 252 137 272 124.5 c 128,-1,42
 292 112 292 112 306 112 c 0,43,44
 346 112 346 112 398 163.5 c 128,-1,45
 450 215 450 215 486.5 288 c 128,-1,46
 523 361 523 361 523 418 c 0,47,48
 523 449 523 449 509.5 474 c 128,-1,49
 496 499 496 499 486 502 c 0,50,51
 469 509 469 509 427 509 c 0,52,53
 334 509 334 509 262 486 c 2,54,-1
 195 464 l 1,55,-1
 197 400 l 2,56,57
 199 336 199 336 208 237 c 0,58,59
 213 178 213 178 219 158 c 128,-1,60
 225 138 225 138 237 137 c 0,40,41
EndSplineSet
EndChar

StartChar: q
Encoding: 113 113 81
Width: 662
GlyphClass: 2
Flags: W
LayerCount: 2
Fore
SplineSet
42 232 m 0,0,1
 42 371 42 371 133.5 472.5 c 128,-1,2
 225 574 225 574 349 574 c 0,3,4
 373 574 373 574 393 566 c 0,5,6
 416 557 416 557 425 543 c 128,-1,7
 434 529 434 529 434 498 c 0,8,9
 434 466 434 466 416.5 356 c 128,-1,10
 399 246 399 246 399 200 c 0,11,12
 399 161 399 161 411 161 c 128,-1,13
 423 161 423 161 467 203 c 0,14,15
 503 238 503 238 541 261.5 c 128,-1,16
 579 285 579 285 599 285 c 0,17,18
 611 285 611 285 611 274 c 0,19,20
 611 264 611 264 543.5 197 c 128,-1,21
 476 130 476 130 466 130 c 2,22,-1
 465 130 l 1,23,-1
 480 122 l 2,24,25
 495 115 495 115 504 106 c 0,26,27
 545 64 545 64 553 49.5 c 128,-1,28
 561 35 561 35 561 -1 c 0,29,30
 561 -7 561 -7 560.5 -27.5 c 128,-1,31
 560 -48 560 -48 560 -63 c 0,32,33
 560 -105 560 -105 555 -123 c 128,-1,34
 550 -141 550 -141 540 -165 c 0,35,36
 523 -211 523 -211 506 -229.5 c 128,-1,37
 489 -248 489 -248 463 -248 c 2,38,-1
 457 -248 l 2,39,40
 435 -248 435 -248 424 -242.5 c 128,-1,41
 413 -237 413 -237 399 -212 c 128,-1,42
 385 -187 385 -187 374.5 -131 c 128,-1,43
 364 -75 364 -75 353 22 c 2,44,-1
 334 178 l 1,45,-1
 270 124 l 2,46,47
 195 62 195 62 150 62 c 0,48,49
 110 62 110 62 84.5 90.5 c 128,-1,50
 59 119 59 119 50.5 154.5 c 128,-1,51
 42 190 42 190 42 232 c 0,0,1
385 496 m 0,52,53
 385 511 385 511 377 517 c 128,-1,54
 369 523 369 523 360 523 c 0,55,56
 249 515 249 515 172.5 435.5 c 128,-1,57
 96 356 96 356 96 248 c 0,58,59
 96 185 96 185 111.5 150.5 c 128,-1,60
 127 116 127 116 155 116 c 0,61,62
 189 116 189 116 250.5 180 c 128,-1,63
 312 244 312 244 328 282 c 0,64,65
 343 314 343 314 358.5 388.5 c 128,-1,66
 374 463 374 463 380 474 c 0,67,68
 385 484 385 484 385 496 c 0,52,53
490 48 m 0,69,70
 464 81 464 81 438 81 c 0,71,72
 409 81 409 81 409 43 c 0,73,74
 409 -27 409 -27 431.5 -106 c 128,-1,75
 454 -185 454 -185 469 -185 c 0,76,77
 476 -185 476 -185 491 -144 c 128,-1,78
 506 -103 506 -103 510 -97 c 0,79,80
 513 -92 513 -92 513 -87 c 0,81,82
 513 -76 513 -76 509 -40 c 0,83,84
 507 -23 507 -23 506.5 -9.5 c 128,-1,85
 506 4 506 4 505.5 10.5 c 128,-1,86
 505 17 505 17 505.5 21.5 c 128,-1,87
 506 26 506 26 503.5 30 c 128,-1,88
 501 34 501 34 499 36.5 c 128,-1,89
 497 39 497 39 490 48 c 0,69,70
EndSplineSet
EndChar

StartChar: r
Encoding: 114 114 82
Width: 526
GlyphClass: 2
Flags: W
LayerCount: 2
Fore
SplineSet
414 486 m 0,0,1
 431 486 431 486 444 475.5 c 128,-1,2
 457 465 457 465 457 458 c 0,3,4
 457 446 457 446 419 431 c 0,5,6
 357 406 357 406 292.5 310.5 c 128,-1,7
 228 215 228 215 214 126 c 0,8,9
 198 25 198 25 188 -6.5 c 128,-1,10
 178 -38 178 -38 162 -38 c 0,11,12
 155 -38 155 -38 150.5 -36.5 c 128,-1,13
 146 -35 146 -35 142 -31.5 c 128,-1,14
 138 -28 138 -28 135.5 -23 c 128,-1,15
 133 -18 133 -18 131.5 -11 c 128,-1,16
 130 -4 130 -4 128.5 4.5 c 128,-1,17
 127 13 127 13 126 24 c 128,-1,18
 125 35 125 35 124 47 c 0,19,20
 100 299 100 299 100 445 c 0,21,22
 100 497 100 497 104 509 c 0,23,24
 115 541 115 541 132 541 c 0,25,26
 148 541 148 541 148 514 c 0,27,28
 148 469 148 469 162 369 c 128,-1,29
 176 269 176 269 183 269 c 0,30,31
 192 269 192 269 220 324 c 0,32,33
 255 389 255 389 313.5 437.5 c 128,-1,34
 372 486 372 486 414 486 c 0,0,1
EndSplineSet
EndChar

StartChar: s
Encoding: 115 115 83
Width: 492
GlyphClass: 2
Flags: W
LayerCount: 2
Fore
SplineSet
181 235 m 0,0,1
 166 235 166 235 117 271.5 c 128,-1,2
 68 308 68 308 68 346 c 0,3,4
 68 382 68 382 119 445.5 c 128,-1,5
 170 509 170 509 242 527 c 0,6,7
 274 536 274 536 329 536 c 0,8,9
 352 536 352 536 363 530 c 128,-1,10
 374 524 374 524 393 503 c 0,11,12
 424 468 424 468 424 455 c 0,13,14
 424 443 424 443 411 443 c 0,15,16
 395 443 395 443 384 454.5 c 128,-1,17
 373 466 373 466 357 478 c 128,-1,18
 341 490 341 490 314 490 c 0,19,20
 279 490 279 490 239 471 c 128,-1,21
 199 452 199 452 168 418 c 0,22,23
 124 371 124 371 124 354 c 128,-1,24
 124 337 124 337 150 313.5 c 128,-1,25
 176 290 176 290 237 269 c 0,26,27
 333 236 333 236 367 207 c 128,-1,28
 401 178 401 178 401 129 c 0,29,30
 401 83 401 83 385 45 c 0,31,32
 374 16 374 16 338 -20 c 128,-1,33
 302 -56 302 -56 267 -56 c 0,34,35
 240 -56 240 -56 197 -47.5 c 128,-1,36
 154 -39 154 -39 132 -28 c 0,37,38
 114 -19 114 -19 99 7.5 c 128,-1,39
 84 34 84 34 84 55 c 0,40,41
 84 66 84 66 89.5 74.5 c 128,-1,42
 95 83 95 83 103 83 c 0,43,44
 118 83 118 83 131 55 c 0,45,46
 143 30 143 30 179.5 10 c 128,-1,47
 216 -10 216 -10 248 -10 c 0,48,49
 291 -10 291 -10 324 41.5 c 128,-1,50
 357 93 357 93 357 122 c 0,51,52
 357 129 357 129 353.5 139.5 c 128,-1,53
 350 150 350 150 336 165 c 128,-1,54
 322 180 322 180 300 188 c 0,55,56
 275 196 275 196 231 215.5 c 128,-1,57
 187 235 187 235 181 235 c 0,0,1
EndSplineSet
EndChar

StartChar: t
Encoding: 116 116 84
Width: 519
GlyphClass: 2
Flags: W
LayerCount: 2
Fore
SplineSet
234 695 m 0,0,1
 234 732 234 732 227 789 c 128,-1,2
 220 846 220 846 220 884 c 0,3,4
 220 903 220 903 221 909 c 0,5,6
 224 925 224 925 232.5 934.5 c 128,-1,7
 241 944 241 944 250 944 c 0,8,9
 262 944 262 944 267 933 c 0,10,11
 271 924 271 924 281.5 794 c 128,-1,12
 292 664 292 664 294 662 c 1,13,14
 294 661 294 661 297 661 c 0,15,16
 305 661 305 661 343.5 669.5 c 128,-1,17
 382 678 382 678 407 678 c 0,18,19
 457 678 457 678 457 656 c 128,-1,20
 457 634 457 634 347 607 c 2,21,-1
 297 595 l 1,22,-1
 303 426 l 2,23,24
 308 277 308 277 322 147.5 c 128,-1,25
 336 18 336 18 336 1 c 0,26,27
 336 -30 336 -30 313 -30 c 0,28,29
 295 -30 295 -30 283.5 2 c 128,-1,30
 272 34 272 34 272 85 c 0,31,32
 272 122 272 122 269 160.5 c 128,-1,33
 266 199 266 199 258.5 280.5 c 128,-1,34
 251 362 251 362 244 448 c 0,35,36
 239 534 239 534 236.5 553.5 c 128,-1,37
 234 573 234 573 229 573 c 0,38,39
 213 573 213 573 152 562 c 128,-1,40
 91 551 91 551 76 551 c 0,41,42
 47 551 47 551 47 575 c 0,43,44
 47 592 47 592 83.5 604 c 128,-1,45
 120 616 120 616 166 625.5 c 128,-1,46
 212 635 212 635 223 642 c 0,47,48
 234 650 234 650 234 695 c 0,0,1
EndSplineSet
EndChar

StartChar: u
Encoding: 117 117 85
Width: 606
GlyphClass: 2
Flags: W
LayerCount: 2
Fore
SplineSet
76 352 m 0,0,1
 76 539 76 539 104 539 c 0,2,3
 109 539 109 539 114.5 537 c 128,-1,4
 120 535 120 535 128 522.5 c 128,-1,5
 136 510 136 510 136 488 c 0,6,7
 136 478 136 478 134 454.5 c 128,-1,8
 132 431 132 431 132 402 c 0,9,10
 132 321 132 321 141 205 c 128,-1,11
 150 89 150 89 160 53 c 0,12,13
 170 14 170 14 194 14 c 0,14,15
 217 14 217 14 264 55 c 0,16,17
 322 106 322 106 375.5 214 c 128,-1,18
 429 322 429 322 450 430 c 0,19,20
 470 536 470 536 483 543 c 0,21,22
 493 550 493 550 504 550 c 0,23,24
 528 550 528 550 528 522 c 0,25,26
 528 508 528 508 513.5 405 c 128,-1,27
 499 302 499 302 499 257 c 0,28,29
 499 194 499 194 524.5 100.5 c 128,-1,30
 550 7 550 7 550 -6 c 0,31,32
 550 -20 550 -20 538 -25.5 c 128,-1,33
 526 -31 526 -31 520 -31 c 0,34,35
 502 -31 502 -31 484.5 20 c 128,-1,36
 467 71 467 71 453.5 122 c 128,-1,37
 440 173 440 173 430 173 c 0,38,39
 426 173 426 173 420.5 167 c 128,-1,40
 415 161 415 161 408 149.5 c 128,-1,41
 401 138 401 138 390 121 c 0,42,43
 346 52 346 52 292.5 6 c 128,-1,44
 239 -40 239 -40 202 -40 c 0,45,46
 160 -40 160 -40 139 -21.5 c 128,-1,47
 118 -3 118 -3 105.5 45 c 128,-1,48
 93 93 93 93 83 197 c 0,49,50
 76 263 76 263 76 352 c 0,0,1
EndSplineSet
EndChar

StartChar: v
Encoding: 118 118 86
Width: 590
GlyphClass: 2
Flags: W
LayerCount: 2
Fore
SplineSet
468 487 m 0,0,1
 468 510 468 510 482.5 533 c 128,-1,2
 497 556 497 556 516 556 c 0,3,4
 538 556 538 556 538 530 c 0,5,6
 538 483 538 483 414 145 c 0,7,8
 389 76 389 76 350 18 c 128,-1,9
 311 -40 311 -40 290 -40 c 0,10,11
 274 -40 274 -40 259.5 -22 c 128,-1,12
 245 -4 245 -4 230 36 c 128,-1,13
 215 76 215 76 204 112 c 128,-1,14
 193 148 193 148 174.5 213.5 c 128,-1,15
 156 279 156 279 144 317 c 0,16,17
 85 513 85 513 85 538 c 0,18,19
 85 547 85 547 93 547 c 0,20,21
 99 547 99 547 103 546 c 0,22,23
 132 541 132 541 175.5 417 c 128,-1,24
 219 293 219 293 253 171 c 128,-1,25
 287 49 287 49 292 49 c 0,26,27
 303 49 303 49 339.5 123 c 128,-1,28
 376 197 376 197 395 259 c 0,29,30
 409 303 409 303 429 358.5 c 128,-1,31
 449 414 449 414 458.5 443 c 128,-1,32
 468 472 468 472 468 487 c 0,0,1
EndSplineSet
EndChar

StartChar: w
Encoding: 119 119 87
Width: 696
GlyphClass: 2
Flags: W
LayerCount: 2
Fore
SplineSet
47 517 m 0,0,1
 47 526 47 526 55 539.5 c 128,-1,2
 63 553 63 553 71 553 c 0,3,4
 82 553 82 553 98 533 c 0,5,6
 114 515 114 515 121.5 446.5 c 128,-1,7
 129 378 129 378 137 363 c 0,8,9
 145 349 145 349 176.5 212 c 128,-1,10
 208 75 208 75 214 75 c 0,11,12
 216 75 216 75 238 135.5 c 128,-1,13
 260 196 260 196 271 233 c 0,14,15
 297 320 297 320 331 320 c 0,16,17
 349 320 349 320 392.5 276 c 128,-1,18
 436 232 436 232 452 198 c 0,19,20
 469 161 469 161 488 138 c 2,21,-1
 505 118 l 1,22,-1
 515 147 l 2,23,24
 520 159 520 159 556.5 340 c 128,-1,25
 593 521 593 521 612 544 c 0,26,27
 618 551 618 551 628 551 c 128,-1,28
 638 551 638 551 646.5 543 c 128,-1,29
 655 535 655 535 655 525 c 1,30,-1
 638 466 l 2,31,32
 622 407 622 407 608 323 c 0,33,34
 595 248 595 248 566.5 143.5 c 128,-1,35
 538 39 538 39 528 29 c 0,36,37
 520 21 520 21 502 25 c 0,38,39
 491 27 491 27 467 64.5 c 128,-1,40
 443 102 443 102 390 202 c 0,41,42
 384 213 384 213 365.5 233.5 c 128,-1,43
 347 254 347 254 341 254 c 128,-1,44
 335 254 335 254 328.5 241 c 128,-1,45
 322 228 322 228 314.5 206.5 c 128,-1,46
 307 185 307 185 287 132 c 128,-1,47
 267 79 267 79 244 22 c 0,48,49
 227 -27 227 -27 203 -27 c 0,50,51
 196 -27 196 -27 189 -21 c 0,52,53
 171 -7 171 -7 132.5 163 c 128,-1,54
 94 333 94 333 91 342 c 0,55,56
 72 401 72 401 72 431 c 0,57,58
 72 453 72 453 59.5 481 c 128,-1,59
 47 509 47 509 47 517 c 0,0,1
EndSplineSet
EndChar

StartChar: x
Encoding: 120 120 88
Width: 583
GlyphClass: 2
Flags: W
LayerCount: 2
Fore
SplineSet
65 481 m 0,0,1
 65 493 65 493 74.5 509.5 c 128,-1,2
 84 526 84 526 97 526 c 0,3,4
 114 526 114 526 124 499 c 0,5,6
 131 480 131 480 212.5 391 c 128,-1,7
 294 302 294 302 305 302 c 0,8,9
 310 302 310 302 355 374 c 2,10,-1
 424 488 l 2,11,12
 446 524 446 524 464 524 c 0,13,14
 473 524 473 524 482.5 513 c 128,-1,15
 492 502 492 502 492 493 c 0,16,17
 492 482 492 482 468 452 c 128,-1,18
 444 422 444 422 438 402 c 0,19,20
 434 385 434 385 394 322 c 128,-1,21
 354 259 354 259 354 253 c 128,-1,22
 354 247 354 247 440 168 c 128,-1,23
 526 89 526 89 530 75 c 0,24,25
 533 66 533 66 533 58 c 0,26,27
 533 34 533 34 511 34 c 0,28,29
 488 34 488 34 464 61 c 0,30,31
 437 90 437 90 379.5 139.5 c 128,-1,32
 322 189 322 189 315 189 c 0,33,34
 305 189 305 189 242 92 c 0,35,36
 208 39 208 39 188 17 c 128,-1,37
 168 -5 168 -5 154 -5 c 0,38,39
 147 -5 147 -5 138.5 2 c 128,-1,40
 130 9 130 9 130 16 c 0,41,42
 130 35 130 35 194 132 c 2,43,-1
 266 241 l 1,44,-1
 222 288 l 2,45,46
 219 292 219 292 166.5 344 c 128,-1,47
 114 396 114 396 89.5 428.5 c 128,-1,48
 65 461 65 461 65 481 c 0,0,1
EndSplineSet
EndChar

StartChar: y
Encoding: 121 121 89
Width: 526
GlyphClass: 2
Flags: W
LayerCount: 2
Fore
SplineSet
128 288 m 0,0,1
 128 210 128 210 135 172.5 c 128,-1,2
 142 135 142 135 162 135 c 0,3,4
 181 135 181 135 224.5 182 c 128,-1,5
 268 229 268 229 286 270 c 0,6,7
 309 320 309 320 323 390.5 c 128,-1,8
 337 461 337 461 348 498 c 128,-1,9
 359 535 359 535 381 535 c 0,10,11
 392 535 392 535 401 526 c 128,-1,12
 410 517 410 517 410 503 c 0,13,14
 410 487 410 487 387.5 398 c 128,-1,15
 365 309 365 309 365 211 c 0,16,17
 365 178 365 178 368 150 c 2,18,-1
 375 121 l 1,19,-1
 407 137 l 2,20,21
 432 148 432 148 446 148 c 0,22,23
 472 148 472 148 472 129 c 0,24,25
 472 105 472 105 430 83 c 2,26,-1
 389 62 l 1,27,-1
 394 -50 l 2,28,29
 388 -227 388 -227 381 -237 c 0,30,31
 374 -249 374 -249 356 -249 c 0,32,33
 335 -249 335 -249 293 -231 c 0,34,35
 269 -220 269 -220 255.5 -207 c 128,-1,36
 242 -194 242 -194 230 -169 c 0,37,38
 202 -112 202 -112 202 -67 c 0,39,40
 202 -51 202 -51 205 -42.5 c 128,-1,41
 208 -34 208 -34 220 -15.5 c 128,-1,42
 232 3 232 3 242 21 c 0,43,44
 251 38 251 38 271.5 49.5 c 128,-1,45
 292 61 292 61 297 67 c 0,46,47
 305 75 305 75 312.5 80 c 128,-1,48
 320 85 320 85 322 87 c 128,-1,49
 324 89 324 89 324 94 c 0,50,51
 324 106 324 106 318 139.5 c 128,-1,52
 312 173 312 173 303 173 c 0,53,54
 297 173 297 173 276 148.5 c 128,-1,55
 255 124 255 124 223 99.5 c 128,-1,56
 191 75 191 75 159 75 c 0,57,58
 119 75 119 75 93 122 c 0,59,60
 80 146 80 146 76.5 177 c 128,-1,61
 73 208 73 208 73 308 c 0,62,63
 74 421 74 421 81.5 462.5 c 128,-1,64
 89 504 89 504 110 504 c 0,65,66
 122 504 122 504 126 490.5 c 128,-1,67
 130 477 130 477 130 429 c 0,68,69
 130 410 130 410 129 364 c 128,-1,70
 128 318 128 318 128 288 c 0,0,1
260 -109 m 0,71,72
 260 -127 260 -127 287.5 -156.5 c 128,-1,73
 315 -186 315 -186 329 -186 c 0,74,75
 344 -186 344 -186 344 -116 c 0,76,77
 343 -97 343 -97 337.5 -69 c 128,-1,78
 332 -41 332 -41 331 -30 c 2,79,-1
 325 30 l 1,80,-1
 297 -13 l 2,81,82
 260 -71 260 -71 260 -109 c 0,71,72
EndSplineSet
EndChar

StartChar: z
Encoding: 122 122 90
Width: 553
GlyphClass: 2
Flags: W
LayerCount: 2
Fore
SplineSet
88 394 m 0,0,1
 76 394 76 394 64 399 c 128,-1,2
 52 404 52 404 52 412 c 0,3,4
 52 440 52 440 155.5 479 c 128,-1,5
 259 518 259 518 307 529 c 0,6,7
 320 532 320 532 336 532 c 0,8,9
 363 532 363 532 389 524.5 c 128,-1,10
 415 517 415 517 425 506 c 0,11,12
 438 492 438 492 438 457 c 0,13,14
 438 404 438 404 409 341 c 2,15,-1
 387 295 l 1,16,-1
 424 290 l 2,17,18
 469 287 469 287 469 276 c 0,19,20
 469 268 469 268 447 258 c 128,-1,21
 425 248 425 248 396 244 c 0,22,23
 369 240 369 240 353.5 231 c 128,-1,24
 338 222 338 222 314 197 c 0,25,26
 289 171 289 171 259 121.5 c 128,-1,27
 229 72 229 72 229 59 c 0,28,29
 229 55 229 55 234 55 c 0,30,31
 238 55 238 55 324 71.5 c 128,-1,32
 410 88 410 88 461 88 c 0,33,34
 514 88 514 88 514 70 c 0,35,36
 514 59 514 59 494 51.5 c 128,-1,37
 474 44 474 44 413 32 c 0,38,39
 225 -5 225 -5 184 -5 c 0,40,41
 151 -5 151 -5 151 13 c 0,42,43
 151 32 151 32 185 97 c 128,-1,44
 219 162 219 162 239 186 c 0,45,46
 265 218 265 218 265 224 c 0,47,48
 265 231 265 231 224 231 c 0,49,50
 174 231 174 231 174 247 c 0,51,52
 174 259 174 259 197.5 267 c 128,-1,53
 221 275 221 275 257 275 c 128,-1,54
 293 275 293 275 304.5 279 c 128,-1,55
 316 283 316 283 328 300 c 0,56,57
 352 336 352 336 368.5 380.5 c 128,-1,58
 385 425 385 425 385 456 c 0,59,60
 385 473 385 473 380 477 c 128,-1,61
 375 481 375 481 355 481 c 0,62,63
 307 480 307 480 221 454 c 128,-1,64
 135 428 135 428 116 408 c 0,65,66
 105 394 105 394 88 394 c 0,0,1
EndSplineSet
EndChar

StartChar: braceleft
Encoding: 123 123 91
Width: 315
GlyphClass: 2
Flags: W
LayerCount: 2
Fore
SplineSet
123 402 m 0,0,1
 123 437 123 437 119.5 493 c 128,-1,2
 116 549 116 549 116 551 c 0,3,4
 116 571 116 571 125 595 c 2,5,-1
 136 628 l 1,6,-1
 158 624 l 2,7,8
 179 622 179 622 183 614 c 0,9,10
 195 592 195 592 177 592 c 0,11,12
 168 592 168 592 168 598 c 128,-1,13
 168 604 168 604 165 604 c 0,14,15
 161 604 161 604 153 586.5 c 128,-1,16
 145 569 145 569 145 545 c 0,17,18
 145 536 145 536 149 490 c 128,-1,19
 153 444 153 444 153 402 c 0,20,21
 153 334 153 334 144.5 305 c 128,-1,22
 136 276 136 276 136 275 c 2,23,-1
 137 268 l 2,24,25
 138 260 138 260 139.5 247 c 128,-1,26
 141 234 141 234 142 203 c 128,-1,27
 143 172 143 172 143 130 c 0,28,29
 143 30 143 30 148 12 c 1,30,31
 158 -8 158 -8 187 -8 c 0,32,33
 194 -8 194 -8 200 -4.5 c 128,-1,34
 206 -1 206 -1 211 -1 c 0,35,36
 219 -1 219 -1 219 -11 c 0,37,38
 219 -22 219 -22 216 -28.5 c 128,-1,39
 213 -35 213 -35 206.5 -37 c 128,-1,40
 200 -39 200 -39 197 -39.5 c 128,-1,41
 194 -40 194 -40 186 -40 c 0,42,43
 142 -40 142 -40 122 0 c 0,44,45
 118 7 118 7 114 128 c 2,46,-1
 112 247 l 1,47,-1
 97 249 l 2,48,49
 81 252 81 252 81 262 c 0,50,51
 81 271 81 271 87.5 278 c 128,-1,52
 94 285 94 285 102 291.5 c 128,-1,53
 110 298 110 298 116.5 326.5 c 128,-1,54
 123 355 123 355 123 402 c 0,0,1
EndSplineSet
EndChar

StartChar: bar
Encoding: 124 124 92
Width: 364
GlyphClass: 2
Flags: W
LayerCount: 2
Fore
SplineSet
181 727 m 0,0,1
 199 732 199 732 202 732 c 128,-1,2
 205 732 205 732 205 731 c 1,3,4
 210 716 210 716 210 145 c 0,5,6
 210 -55 210 -55 208 -71 c 0,7,8
 201 -112 201 -112 184 -112 c 0,9,10
 179 -112 179 -112 174 -107 c 1,11,12
 169 -100 169 -100 163.5 238 c 128,-1,13
 158 576 158 576 157 580 c 1,14,15
 157 584 157 584 163 658 c 0,16,17
 168 724 168 724 181 727 c 0,0,1
EndSplineSet
EndChar

StartChar: braceright
Encoding: 125 125 93
Width: 337
GlyphClass: 2
Flags: W
LayerCount: 2
Fore
SplineSet
116 664 m 0,0,1
 116 673 116 673 129 673 c 0,2,3
 134 673 134 673 143.5 670 c 128,-1,4
 153 667 153 667 164.5 654 c 128,-1,5
 176 641 176 641 176 620 c 0,6,7
 176 590 176 590 170 525.5 c 128,-1,8
 164 461 164 461 164 450 c 0,9,10
 164 385 164 385 183 368 c 0,11,12
 194 356 194 356 218 356 c 0,13,14
 247 356 247 356 247 342 c 0,15,16
 247 333 247 333 240.5 324.5 c 128,-1,17
 234 316 234 316 226 306 c 128,-1,18
 218 296 218 296 211.5 258 c 128,-1,19
 205 220 205 220 205 159 c 0,20,21
 205 132 205 132 206 100 c 128,-1,22
 207 68 207 68 207 62 c 0,23,24
 207 26 207 26 198 -4 c 0,25,26
 190 -31 190 -31 180.5 -40.5 c 128,-1,27
 171 -50 171 -50 152 -50 c 128,-1,28
 133 -50 133 -50 127 -45 c 128,-1,29
 121 -40 121 -40 121 -30 c 0,30,31
 121 -10 121 -10 133 -10 c 0,32,33
 136 -10 136 -10 142 -15.5 c 128,-1,34
 148 -21 148 -21 152 -21 c 0,35,36
 169 -21 169 -21 172.5 128 c 128,-1,37
 176 277 176 277 184 298 c 2,38,-1
 193 322 l 1,39,-1
 175 331 l 2,40,41
 159 338 159 338 143 362 c 0,42,43
 130 384 130 384 130 430 c 0,44,45
 130 459 130 459 134.5 526.5 c 128,-1,46
 139 594 139 594 139 610 c 0,47,48
 139 633 139 633 127.5 645 c 128,-1,49
 116 657 116 657 116 664 c 0,0,1
EndSplineSet
EndChar

StartChar: asciitilde
Encoding: 126 126 94
Width: 613
GlyphClass: 2
Flags: W
LayerCount: 2
Fore
SplineSet
114 644 m 0,0,1
 114 661 114 661 157.5 699 c 128,-1,2
 201 737 201 737 236 737 c 0,3,4
 262 737 262 737 290.5 723.5 c 128,-1,5
 319 710 319 710 346 691.5 c 128,-1,6
 373 673 373 673 382 669 c 2,7,-1
 404 659 l 1,8,-1
 430 683 l 2,9,10
 448 697 448 697 459.5 715.5 c 128,-1,11
 471 734 471 734 477.5 744 c 128,-1,12
 484 754 484 754 493 754 c 0,13,14
 510 754 510 754 510 740 c 0,15,16
 510 716 510 716 472.5 672 c 128,-1,17
 435 628 435 628 403 628 c 0,18,19
 380 628 380 628 319 665 c 128,-1,20
 258 702 258 702 234 702 c 0,21,22
 219 702 219 702 200 687.5 c 128,-1,23
 181 673 181 673 177 673 c 128,-1,24
 173 673 173 673 154.5 650.5 c 128,-1,25
 136 628 136 628 125 628 c 128,-1,26
 114 628 114 628 114 644 c 0,0,1
EndSplineSet
EndChar

